<?xml version="1.0" encoding="utf-8"?>
<!-- Generator: Adobe Illustrator 25.2.0, SVG Export Plug-In . SVG Version: 6.00 Build 0)  -->
<svg version="1.1" id="Layer_1" xmlns="http://www.w3.org/2000/svg" xmlns:xlink="http://www.w3.org/1999/xlink" x="0px" y="0px"
	 viewBox="0 0 3500 2000" style="enable-background:new 0 0 3500 2000;" xml:space="preserve">
<style type="text/css">
	.st0{fill:#FFFFFF;}
	.st1{fill:#E4F0FF;}
	.st2{opacity:0.5;}
	.st3{fill:#FFC0BB;}
	.st4{fill:#7683C4;}
	.st5{fill:#3C2340;}
	.st6{fill:#07085B;}
	.st7{fill:#F99893;}
	.st8{fill:#333333;}
	.st9{fill:#2C377A;}
	.st10{fill:#404996;}
	.st11{fill:#838CCF;}
	.st12{fill:#FF5B7E;}
	.st13{fill:#E5426E;}
	.st14{fill:#4C2816;}
	.st15{opacity:0.5;fill:#4C2816;}
	.st16{fill:#F484A2;}
	.st17{fill:#FCB7B4;}
	.st18{fill:#F24C78;}
	.st19{fill:#FEE4CB;}
	.st20{opacity:0.5;fill:#FEE4CB;}
	.st21{fill:#E8B891;}
	.st22{fill:#88C7FF;}
	.st23{fill:#B0D6FF;}
	.st24{opacity:0.3;fill:#C9EAFD;}
	.st25{fill:#142666;}
	.st26{fill:#FEB546;}
	.st27{fill:#E87B50;}
	.st28{fill:#F3FDFF;}
	.st29{fill:#EA426E;}
	.st30{opacity:0.3;fill:#E87B50;}
	.st31{fill:#F76390;}
	.st32{fill:#06062D;}
	.st33{fill:#09083C;}
	.st34{fill:#29589B;}
	.st35{fill:#3660AC;}
	.st36{fill:#F9A435;}
	.st37{fill:#EF972E;}
	.st38{opacity:0.3;fill:#F99893;}
	.st39{fill:#70C0FD;}
	.st40{opacity:0.3;fill:#4188E4;}
	.st41{fill:#E6F7FF;}
	.st42{opacity:0.2;fill:#FFFFFF;}
	.st43{fill:#183658;}
	.st44{opacity:0.2;fill:#E0A689;}
	.st45{fill:#DAEEF7;}
	.st46{opacity:0.3;fill:#DAEEF7;}
	.st47{opacity:0.5;fill:#88C7FF;}
	.st48{fill:#4188E4;}
	.st49{fill:#18196B;}
	.st50{fill:#FF7B8C;}
	.st51{fill:#AFDBFE;}
	.st52{opacity:0.5;fill:#70C0FD;}
	.st53{fill:#97CEF7;}
</style>
<rect class="st0" width="3500" height="2000"/>
<g>
	<path class="st1" d="M3312.63,1619.22c-56.23-198.35,53.25-407.29-59.01-595.24c-35.65-59.69-91.36-112.24-138.17-168.03
		c-70.67-84.24-121.49-176.86-149.18-271.89c-18.12-62.17-26.48-125.47-52.05-186.6c-70.93-169.59-282.83-309.23-516.06-340.1
		c-187.97-24.88-382.47,6.97-536.19,79.05C1171.49,460.2,811.76,307.04,570.72,418.75c-151.08,70.02-225.5,200.22-270.36,330.38
		c-44.87,130.16-62.84,358.76-128.05,505.98c-216.54,488.87,100.53,662.82,241.91,713.98c5.05,1.83,26.38,4.37,31.58,5.97
		l360.25,5.28c71.67-9.98,235.26-6.4,293.48-4.78c228.61,6.37,418.02-5.71,617.35-3.61c496.6,5.23,961.63,7.11,1429.42,4.28
		c68.45-0.42,108.12-17.96,158.95-49.16c54.18-33.25,67.83-92.4,59.02-146.77S3327.92,1673.17,3312.63,1619.22z"/>
	<g class="st2">
		<polygon class="st0" points="1757.01,529.68 2107.59,529.68 2268.62,195.43 1918.04,195.43 		"/>
		<polygon class="st0" points="2322.08,195.43 2161.05,529.68 2511.63,529.68 2672.66,195.43 		"/>
		<polygon class="st0" points="1579.85,897.43 1930.43,897.43 2091.46,563.17 1740.88,563.17 		"/>
		<polygon class="st0" points="1983.89,897.43 2334.47,897.43 2495.5,563.17 2144.91,563.17 		"/>
	</g>
	<g>
		<path class="st3" d="M2053.98,1352.01c-0.86,0.85-0.44,2.32,0.74,2.57c9.17,1.94,37.98,8.23,38.02,10.68
			c0.04,2.91-25.84-2.09-27.21,0.24s24,6.56,23.55,9.67c-0.45,3.12-23.46-1.52-24.11-0.27c-0.65,1.25,20.91,8.04,21.75,10.04
			s-23.07-2.46-24.29-1.17c-1.22,1.29,14.25,9.85,13.67,11.26c-0.58,1.41-0.73,2.45-41.09-6.84l-15.73-4.33l-10.93-10.47l6.8-16.88
			c0,0,48.68-21.69,50.54-20.52C2067.46,1337.1,2067.21,1338.89,2053.98,1352.01z"/>
		<g>
			<g>
				<path class="st4" d="M1853.67,1135.42l44.82,177.95l123.08,38.55c0,0-2.77,35.37-2.43,35.15s-163.5,1.42-181.4-12.77
					c-17.9-14.18-22.87-206.76-22.87-206.76L1853.67,1135.42z"/>
			</g>
		</g>
		<g>
			<g>
				<g>
					<path class="st5" d="M1643.21,1932.26l25.55-0.1c2.06-0.01,3.85-1.65,4.28-3.95l0,0c0.28-1.51,1.51-2.53,2.83-2.36l0.34-0.02
						c2.62,0.34,0.02,1.45,0,4.46l8.31,9.1l5.04,4.56c5.7,5.15,12.67,8.15,19.94,8.58l7.59,0.44c2.29,0.13,4.43,1.3,5.95,3.25
						l0.73,0.93c2.88,3.68,4.46,8.46,4.42,13.39l0,0l-59.07,0.73c-2.01-0.01-3.97-0.68-5.65-1.92l-8.13-5.83l-0.06,7.67l-16.52-0.12
						l0.24-31.24C1639.01,1935.63,1639.54,1932.27,1643.21,1932.26z"/>
				</g>
			</g>
			
				<rect x="1638.75" y="1970.9" transform="matrix(1 -8.859539e-03 8.859539e-03 1 -17.4055 14.6692)" class="st6" width="16.54" height="2.02"/>
			<path class="st6" d="M1728.19,1972.19l-61.42,0.55c-0.24,0-0.43-0.19-0.43-0.42l-0.01-1.59l61.85-0.55L1728.19,1972.19z"/>
		</g>
		<g>
			<g>
				<g>
					<path class="st5" d="M1812.55,1932.26l25.55-0.1c2.06-0.01,3.84-1.65,4.28-3.95l0,0c0.28-1.51,1.51-2.53,2.83-2.36l0.34-0.02
						c2.62,0.34,0.02,1.45,0,4.46l8.31,9.1l5.04,4.56c5.7,5.15,12.67,8.15,19.94,8.58l7.59,0.44c2.29,0.13,4.43,1.3,5.95,3.25
						l0.73,0.93c2.88,3.68,4.46,8.46,4.42,13.39l0,0l-59.07,0.73c-2.01-0.01-3.97-0.68-5.65-1.92l-8.13-5.83l-0.06,7.67l-16.52-0.12
						l0.24-31.24C1808.35,1935.63,1808.88,1932.27,1812.55,1932.26z"/>
				</g>
			</g>
			
				<rect x="1808.09" y="1970.9" transform="matrix(1 -8.859057e-03 8.859057e-03 1 -17.3979 16.1686)" class="st6" width="16.54" height="2.02"/>
			<path class="st6" d="M1897.53,1972.19l-61.42,0.55c-0.24,0-0.43-0.19-0.43-0.42l-0.01-1.59l61.85-0.55L1897.53,1972.19z"/>
		</g>
		<g>
			<path class="st6" d="M1723.23,1034.45c0,0-11.88-49.85,15.68-68.77c27.55-18.91,56.88-17.06,76.9-6
				c20.02,11.06,32.19,50.04,23.36,72.43l-66.38-20.82L1723.23,1034.45z"/>
			<polygon class="st3" points="1755.17,1078.89 1752.87,1135.24 1802.31,1130.72 1794.44,1081.25 			"/>
			<path class="st7" d="M1798.18,1104.78l-3.74-23.53l-39.27-2.36l-0.79,19.51C1762.48,1105.82,1776.81,1113.24,1798.18,1104.78z"/>
			<path class="st7" d="M1825.71,1037.93c-2.71,6.29-0.83,13.15,4.2,15.32c5.03,2.17,11.31-1.17,14.02-7.46
				c2.71-6.29,0.83-13.15-4.2-15.32C1834.7,1028.3,1828.42,1031.64,1825.71,1037.93z"/>
			<path class="st3" d="M1823.15,1074.99c1.63-2.7,3.03-5.58,4.15-8.59c3.2-8.1,4.9-16.73,5.79-24.27c0.19-1.62,0.47-3.22,0.79-4.82
				c1.26-6.46,1.38-13.32,0-20.42c-4.44-22.82-23.72-40.33-46.87-42.51c-31.18-2.94-57.49,21.2-58.1,51.68
				c-3.28-1.91-6.99-2.41-10.3-1.01c-6.34,2.68-8.77,11.29-5.41,19.21c3.35,7.93,11.21,12.18,17.56,9.5
				c0.88-0.37,1.68-0.87,2.4-1.45c2.13,25.99,22.98,46.43,48.48,46.52c12.47,0.04,23.86-4.8,32.51-12.79
				c0.58-0.46,1.19-1.01,1.83-1.64C1818.78,1081.61,1821.14,1078.42,1823.15,1074.99z"/>
			<path class="st7" d="M1793.77,1026.83c0.23,3.03,0.39,5.99,0.67,8.88c0.31,2.83,0.75,5.85,1.98,7.79l0.24,0.31
				c0.09,0.12,0.11,0.18,0.3,0.38c0.29,0.37,0.63,0.67,0.85,1.11c0.49,0.8,0.85,1.75,0.91,2.75c0.16,2-0.82,3.84-2.1,5
				c-2.61,2.39-6.1,2.76-9.03,2.17c2.94-0.65,5.73-1.79,7.3-3.8c0.72-0.99,1.18-2.09,0.96-3.09c-0.08-0.49-0.27-0.97-0.58-1.42
				c-0.11-0.24-0.36-0.43-0.52-0.65l-0.4-0.49l-0.45-0.57c-1.02-1.58-1.39-3.2-1.64-4.78c-0.22-1.58-0.26-3.13-0.18-4.67
				C1792.23,1032.71,1792.75,1029.71,1793.77,1026.83z"/>
			<path class="st8" d="M1776.38,1031.6c-0.01,2.55-2.09,4.62-4.64,4.61c-2.55-0.01-4.62-2.09-4.61-4.64
				c0.01-2.55,2.09-4.62,4.64-4.61C1774.33,1026.97,1776.39,1029.05,1776.38,1031.6z"/>
			<path class="st8" d="M1816.09,1034.34c-0.01,2.55-2.09,4.62-4.64,4.61c-2.55-0.01-4.62-2.09-4.61-4.64
				c0.01-2.55,2.09-4.62,4.64-4.61C1814.04,1029.71,1816.1,1031.79,1816.09,1034.34z"/>
			<path class="st6" d="M1781.73,1020.92c-2.38-0.62-4.62-1.08-6.83-1.33c-2.2-0.24-4.35-0.21-6.42,0.14
				c-2.06,0.37-4.13,0.91-6.1,1.91c-1.05,0.38-1.95,1.05-3.01,1.55c-1.02,0.56-1.95,1.26-3.09,1.83c0.54-1.1,1.17-2.18,1.92-3.17
				c0.83-0.91,1.63-1.93,2.69-2.64c1.96-1.63,4.48-2.63,7.04-3.07c2.58-0.42,5.24-0.16,7.64,0.68
				C1777.93,1017.67,1780.13,1019,1781.73,1020.92z"/>
			<path class="st6" d="M1802.18,1022.32c1.79-1.73,4.13-2.82,6.59-3.41c2.47-0.58,5.15-0.55,7.67,0.15
				c2.5,0.71,4.89,1.97,6.67,3.81c0.98,0.82,1.65,1.92,2.38,2.91c0.64,1.07,1.15,2.21,1.56,3.36c-1.07-0.68-1.93-1.48-2.88-2.15
				c-1-0.61-1.82-1.38-2.83-1.86c-1.85-1.21-3.85-1.96-5.86-2.55c-2.03-0.57-4.16-0.84-6.37-0.83
				C1806.89,1021.75,1804.62,1021.96,1802.18,1022.32z"/>
			<path class="st6" d="M1729.67,1026.78c-3.05-2.62-5.39-2.41-5.39-2.41l1.31-16.15l4.97-9.75c0,0,19.54-26.26,20.23-26.91
				c0.69-0.65,15.65-9.18,16.57-9.62s21.95,2.64,21.95,2.64s36.92-7.71,30.77,11.63c-6.15,19.35-33.08,29.6-34.47,28.75
				c4.36-4.35,4.76-16.65,4.76-16.65C1771.34,1009.1,1735.29,1024.46,1729.67,1026.78z"/>
			<path class="st0" d="M1805.42,1061.9c-1.04,5.8-6.42,10.3-13.02,10.48c-6.6,0.17-12.2-4.04-13.54-9.78L1805.42,1061.9z"/>
		</g>
		<path class="st3" d="M1740.3,1121.92l69.61-0.19l8.81,41.13l-38.19,99.88c0,0-38.19-41.13-38.19-47
			c0-5.88-17.63-49.94-14.69-55.82C1730.58,1154.04,1740.3,1121.92,1740.3,1121.92z"/>
		<path class="st9" d="M1866.96,1406.15c-29.46,44.32-88.33,108.26-88.33,108.26l0,0l27.14,429.49c0,0,39.3,4.25,52.81-6.19
			C1858.58,1937.71,1868.88,1530.54,1866.96,1406.15z"/>
		<path class="st10" d="M1855.81,1422.62c-0.1-6.28,11.38,12.24,11.16,7.23c-4.5-104.32-147.49-16.85-147.49-16.85l-30.03-6.31
			l-55.17,535.48c0,0,35.89,7.92,56.45,0l87.9-422.52C1778.63,1519.65,1810.09,1506.16,1855.81,1422.62z"/>
		<path class="st3" d="M1673.51,1498.04c-0.8-0.91-2.29-0.58-2.61,0.59c-2.49,9.03-10.52,37.41-12.97,37.3
			c-2.9-0.13,3.65-25.66,1.41-27.17c-2.24-1.51-8.01,23.56-11.09,22.92c-3.08-0.64,2.94-23.32,1.74-24.05
			c-1.2-0.72-9.3,20.39-11.34,21.1c-2.04,0.71,3.86-22.88,2.65-24.17c-1.21-1.29-10.7,13.63-12.07,12.97
			c-1.37-0.67-2.4-0.88,9.32-40.6l5.28-15.44l11.12-10.28l16.44,7.81c0,0,18.69,49.91,17.41,51.69
			C1687.57,1512.41,1685.8,1512.04,1673.51,1498.04z"/>
		<path class="st5" d="M1746.47,1128.39c0,0,34.74,21.04,62.28,0c0,0,15.66,41.35,14.18,42.84s-17.83,46.05-17.83,47.53
			s-19.31,19.31-28.22,5.94c-8.91-13.37-14.85-11.88-26.74-40.11c-11.88-28.22-20.8-37.14-17.83-40.11
			C1735.29,1141.52,1746.47,1128.39,1746.47,1128.39z"/>
		<g>
			<path class="st11" d="M1742.33,1121.73c0,0-70.51,5.88-85.2,29.38c-14.69,23.5-49.94,158.64-47,199.77
				c2.94,41.13,29.38,120.45,29.38,120.45s23.5,2.94,32.32-11.75c0,0-17.63-111.64-14.69-120.45c2.94-8.81,35.25-99.88,35.25-99.88
				l-5.88,179.2c0,0,70.51,44.07,182.14,8.81c0,0,14.69-290.84-23.5-299.65l-35.25-5.88l-14.69,85.2L1742.33,1121.73z"/>
		</g>
	</g>
	<g>
		<polygon class="st3" points="2256.08,1079.65 2255.97,1088.68 2254.94,1111.13 2299.13,1105.31 2303.94,1098.76 2304.33,1081.71 
			2305.78,1065.73 2276.41,1065.73 		"/>
		<path class="st6" d="M2323.81,963.59c0,0,16.75-12.1,36.91-1.67c20.16,10.43,21.89,48.61,14.56,58.1
			c-7.32,9.49,1.37,21.49-13.57,34.12c-14.94,12.63-39.38,18.12-54.08,4.83c-14.7-13.3-5.79-44.85-5.79-44.85L2323.81,963.59z"/>
		<path class="st7" d="M2229.32,1013.81c2.77,6.61,0.74,13.77-4.53,15.99c-5.28,2.22-11.8-1.33-14.57-7.94
			c-2.77-6.61-0.74-13.77,4.53-15.99C2220.02,1003.65,2226.55,1007.2,2229.32,1013.81z"/>
		<path class="st7" d="M2306.26,1061.69c0,0-1.17,9.06-1.93,20.02c-9.88,8-22.64,12.1-35.95,10.38c-4.38-0.57-8.53-1.74-12.41-3.4
			c0.31-7.15,0.2-13.77-0.9-16.95C2252.03,1063.01,2306.26,1061.69,2306.26,1061.69z"/>
		<path class="st3" d="M2231.64,1052.62c-1.68-2.84-3.11-5.87-4.26-9.03c-3.26-8.5-4.96-17.55-5.82-25.45
			c-0.18-1.69-0.46-3.37-0.78-5.05c-1.26-6.77-1.31-13.95,0.19-21.36c4.85-23.84,25.14-41.98,49.33-44.04
			c32.59-2.78,59.84,22.73,60.19,54.63c3.44-1.97,7.32-2.45,10.76-0.96c6.6,2.87,9.05,11.89,5.47,20.16
			c-3.58,8.26-11.82,12.64-18.42,9.77c-0.92-0.4-1.74-0.93-2.49-1.54c-2.46,27.17-24.43,48.37-51.05,48.21
			c-13.02-0.07-24.87-5.25-33.83-13.69c-0.6-0.49-1.23-1.07-1.89-1.74C2236.15,1059.58,2233.71,1056.22,2231.64,1052.62z"/>
		<path class="st8" d="M2279.62,1012.24c-0.02,2.88,2.3,5.22,5.17,5.24c2.87,0.02,5.21-2.3,5.23-5.18c0.02-2.88-2.3-5.22-5.17-5.24
			C2281.98,1007.05,2279.64,1009.37,2279.62,1012.24z"/>
		<path class="st8" d="M2237,1014.17c-0.02,2.88,2.3,5.22,5.17,5.24c2.87,0.02,5.21-2.3,5.23-5.18c0.02-2.88-2.3-5.22-5.17-5.24
			C2239.36,1008.98,2237.02,1011.3,2237,1014.17z"/>
		<g>
			<g>
				<path class="st7" d="M2263.32,1003.04c0.11,1.68,0.2,3.35,0.21,5.03c0.03,1.67,0.01,3.34-0.08,5.01
					c-0.1,1.66-0.25,3.32-0.58,4.93c-0.32,1.61-0.79,3.21-1.67,4.51c-0.12,0.15-0.22,0.33-0.35,0.46c-0.13,0.15-0.24,0.28-0.4,0.45
					c-0.15,0.16-0.3,0.32-0.44,0.5c-0.14,0.17-0.28,0.35-0.39,0.55c-0.49,0.75-0.83,1.63-0.92,2.54c-0.19,1.84,0.63,3.63,1.85,4.87
					c1.22,1.27,2.79,2.11,4.41,2.61c1.63,0.49,3.34,0.67,5.01,0.58c-0.84-0.06-1.67-0.17-2.48-0.32c-0.82-0.16-1.61-0.4-2.38-0.7
					c-1.53-0.58-2.96-1.47-4.03-2.67c-1.06-1.19-1.72-2.75-1.51-4.28c0.09-0.76,0.37-1.49,0.8-2.14c0.1-0.17,0.22-0.32,0.34-0.47
					c0.12-0.16,0.25-0.3,0.39-0.44l0.44-0.48c0.16-0.16,0.28-0.35,0.41-0.54c0.5-0.74,0.86-1.55,1.14-2.37
					c0.28-0.82,0.48-1.66,0.63-2.5c0.29-1.69,0.42-3.38,0.44-5.07C2264.22,1009.72,2263.9,1006.35,2263.32,1003.04z"/>
			</g>
		</g>
		<g>
			<g>
				<path class="st6" d="M2274.86,1003.76c2.3-1.36,4.71-2.41,7.18-3.14c2.48-0.71,5.02-1.05,7.54-0.92
					c1.26,0.05,2.52,0.25,3.75,0.54c0.62,0.13,1.22,0.33,1.84,0.51c0.31,0.09,0.6,0.22,0.9,0.32c0.3,0.11,0.61,0.21,0.9,0.35
					c2.37,1,4.62,2.36,6.83,3.88c-1.68-2.09-3.8-3.87-6.2-5.19c-1.2-0.66-2.48-1.21-3.82-1.58c-1.33-0.38-2.71-0.63-4.1-0.69
					c-2.78-0.13-5.58,0.37-8.11,1.42c-1.27,0.51-2.48,1.16-3.61,1.91C2276.83,1001.92,2275.76,1002.76,2274.86,1003.76z"/>
			</g>
		</g>
		<g>
			<g>
				<path class="st6" d="M2253.94,1004.71c-0.99-0.92-2.13-1.66-3.32-2.31c-1.2-0.64-2.46-1.18-3.77-1.57
					c-2.62-0.81-5.45-1.06-8.2-0.68c-1.38,0.18-2.73,0.55-4.03,1.05c-1.3,0.49-2.52,1.15-3.66,1.92c-2.28,1.54-4.22,3.49-5.71,5.73
					c2.06-1.71,4.18-3.27,6.45-4.48c0.28-0.16,0.57-0.29,0.86-0.42c0.29-0.13,0.57-0.29,0.87-0.4c0.59-0.24,1.18-0.49,1.78-0.67
					c1.2-0.4,2.43-0.71,3.68-0.87c2.5-0.35,5.07-0.25,7.6,0.24C2249.03,1002.74,2251.52,1003.56,2253.94,1004.71z"/>
			</g>
		</g>
		<path class="st6" d="M2221.68,963.18c8.63-35.66,55.23-39.01,55.23-39.01c72.39,1.75,63.89,65.69,61.99,76.29
			c-2.11-0.39-4.98-0.2-8.39,1.86c-1.43,0.86-2.58,1.76-3.51,2.65c-8.62-2.21-11.83-16.24-16.54-22.85
			c-6.39-8.98-32.48-3.01-42.76-9.12c-10.28-6.11-11.76-16.2-11.76-16.2c-38.21,7.86-35.77,48.59-35.77,48.59
			c-1.68-0.3-3.73-0.02-3.73-0.02S2213.97,995.03,2221.68,963.18z"/>
		<path class="st0" d="M2250.9,1042.09c1.56,5.35,8.03,9.21,15.65,8.95c7.61-0.26,13.81-4.56,15-10L2250.9,1042.09z"/>
		<path class="st3" d="M2055.71,1244.81l-48.22-22.36l10.21-25.13c0,0,23.02,7.97,46.61,15.8L2055.71,1244.81z"/>
		<path class="st3" d="M2163.67,1954.24l41.57-25.97l36.11,21.63l-12.54,9.03l-43.64,6.38c0,0-17.05-2.11-17.81-2.61
			C2166.62,1962.19,2163.67,1954.24,2163.67,1954.24z"/>
		<path class="st3" d="M2263.96,1577.43c0,0-5.95,143.93-6.5,168.78c-0.55,24.85-13.22,209.27-18.73,225.28l-30.86-2.21
			c0,0-21.05-357.06-14.43-391.85S2263.96,1577.43,2263.96,1577.43z"/>
		<path class="st11" d="M2163.67,1954.24l-10.53,6.86c-4.88,3.12-2.68,10.69,3.11,10.69h80c2.82,0,5.11-2.29,5.11-5.12v-16.78
			C2188.08,1966.89,2169.67,1961.72,2163.67,1954.24z"/>
		<path class="st3" d="M2359.79,1955.5l37.58-31.48l38.76,16.42l-11.17,10.68l-42.34,12.36c0,0-17.18,0.28-18-0.12
			S2359.79,1955.5,2359.79,1955.5z"/>
		<path class="st3" d="M2406.95,1568.44c0,0,14.03,143.37,16.92,168.05c2.89,24.68,15.88,209.08,12.63,225.71l-30.87,2.08
			c0,0-70.28-350.71-68.54-386.08S2406.95,1568.44,2406.95,1568.44z"/>
		<path class="st6" d="M2359.79,1955.5l-9.48,8.25c-4.4,3.76-1.17,10.96,4.56,10.16l79.23-11.08c2.79-0.39,4.74-2.98,4.35-5.78
			l-2.32-16.62C2385.71,1964.66,2366.77,1962.08,2359.79,1955.5z"/>
		<path class="st3" d="M2394.35,1360.65l31.22-34.54l-22.61-23.52l-38.19,49.47c0,0,22.26,59.82,23.59,62.48
			c1.33,2.66,5.82,0,5.82,0c-1.34-10.24-0.71-39.11-0.29-53.74C2394.18,1360.7,2394.35,1360.65,2394.35,1360.65z"/>
		<path class="st11" d="M2215.2,1317.95c0,0-41.23,46.14-44.74,194.16c-3.51,148.02,4.21,201.33,4.21,201.33
			s113.18,27.59,270.78-24.55c0,0-38.82-279.9-95.87-375.3C2349.58,1313.58,2283.09,1273.91,2215.2,1317.95z"/>
		<path class="st3" d="M2024.46,1202.89c-0.19-2.3-6.37-5.32-6.37-5.32c-5.24-2.22-15.9-4.92-25.56-4.54
			c-3.03,0.12-5.07,3.15-3.99,5.98l0,0l5.43,0.23c-0.16,0.16-0.36,0.29-0.61,0.34c-1.47,0.33-3.57,0.8-5.99,1.36l2.25,24.4
			c4.77-1.03,10.98,3.64,20.06,1.45l12.08-3.46c-0.86-1.47-1.66-2.97-2.3-4.54c-0.96-2.44-1.72-4.96-2.28-7.51
			C2016.65,1208.74,2024.68,1205.49,2024.46,1202.89z"/>
		<g>
			<path class="st12" d="M1975.62,1230.78l6.47-1.53c3.23-0.76,6.29-2.32,9-4.56l1.47-1.22c3.3-2.74,5.56-6.94,6.26-11.68l0.36-2.44
				c0.37-2.47-0.07-5.02-1.22-7.13l0,0c-1.39-2.55-3.69-4.18-6.23-4.42l-7.35-0.71L1975.62,1230.78z M1979.26,1224.98l5.97-22.93
				l5,0.48c1.73,0.17,3.29,1.28,4.24,3.01l0,0c0.78,1.43,1.08,3.17,0.83,4.85l-0.25,1.66c-0.48,3.22-2.01,6.09-4.26,7.95l-1,0.83
				c-1.84,1.53-3.93,2.58-6.13,3.1L1979.26,1224.98z"/>
			<path class="st12" d="M1918.6,1191.44l0.36-0.05l33.09,0.97l33.45-0.98l0.06,0.04c0,0,0.1,0.06,0.1,0.26
				c0.02,3.46-1.51,37.1-15.44,51.3c0,0-9.54,1.46-18.18,1.28c-8.64,0.19-19.51-2.92-19.51-2.92
				c-13.88-14.15-14.13-45.97-14.11-49.62C1918.44,1191.5,1918.6,1191.44,1918.6,1191.44z"/>
			<path class="st13" d="M1918.43,1191.72c0-0.22,0.16-0.28,0.16-0.28l0.36-0.05l33.09,0.97l2.01-0.06
				c-7.07,4.39-13.64,10.85-13.98,19.78c-0.54,14.49,7.89,28.63,20.24,31.59c-2.71,0.38-5.6,0.64-8.28,0.58
				c-8.64,0.19-19.51-2.92-19.51-2.92C1918.66,1227.2,1918.42,1195.37,1918.43,1191.72z"/>
			<path class="st12" d="M1918.44,1191.72c0,4.96,15.1,8.99,33.64,8.99c18.55,0,33.58-4.02,33.58-8.99c0-4.96-15.03-8.99-33.58-8.99
				C1933.53,1182.74,1918.44,1186.76,1918.44,1191.72z"/>
			<path class="st14" d="M1981.52,1195.96l-10.39,2.8l-8.23,1.23l-11.18,0.28l-10.95-0.56l-7.06-0.9l-6.22-1.46l-4.4-1.85
				c0,0-1.14-1.04-1.96-1.76c4.8-3.4,17.11-5.82,31.49-5.82c14.59,0,27.01,2.49,31.64,5.97L1981.52,1195.96z"/>
			<path class="st15" d="M1925.2,1192.68c0.08-0.21,0.22-0.34,0.38-0.39c9.07-2.45,17.86-3.34,25.76-3.36v0c0.02,0,0.04,0,0.07,0
				c0.02,0,0.04,0,0.07,0v0c7.9,0.02,16.69,0.9,25.76,3.36c0.16,0.04,0.31,0.18,0.38,0.39c0.13,0.36,0.08,0.97-1.16,1.67
				c-3.38,1.17-6.91,1.37-10.36,0.59c-3.62-0.82-8.64-1.64-14.68-1.82c-6.04,0.18-11.05,1-14.68,1.82
				c-3.46,0.78-6.98,0.58-10.36-0.59C1925.12,1193.65,1925.07,1193.04,1925.2,1192.68z"/>
			<path class="st0" d="M1980.14,1191.99c-1.14-0.49-2.31-0.86-3.48-1.21c-1.17-0.34-2.36-0.64-3.54-0.91
				c-1.19-0.27-2.38-0.49-3.58-0.7c-0.6-0.11-1.2-0.2-1.8-0.29c-0.6-0.09-1.2-0.17-1.8-0.25c-2.4-0.32-4.82-0.52-7.23-0.66
				c-2.42-0.14-4.83-0.2-7.25-0.2c-4.83,0.02-9.67,0.3-14.47,0.99c-2.4,0.35-4.79,0.79-7.16,1.37c-1.18,0.29-2.36,0.62-3.53,1
				c-1.17,0.38-2.33,0.79-3.45,1.33c0.28-0.13,0.57-0.25,0.85-0.36c0.29-0.11,0.58-0.22,0.86-0.32c0.58-0.21,1.16-0.4,1.75-0.58
				c1.17-0.36,2.35-0.67,3.53-0.94c2.37-0.56,4.76-0.97,7.16-1.29c2.4-0.31,4.81-0.55,7.22-0.7c2.41-0.15,4.83-0.21,7.24-0.22
				c4.83-0.02,9.66,0.21,14.46,0.79c0.6,0.07,1.2,0.15,1.8,0.23c0.6,0.09,1.2,0.17,1.8,0.27c1.2,0.19,2.39,0.41,3.58,0.66
				c1.19,0.25,2.37,0.52,3.55,0.84c0.59,0.16,1.17,0.33,1.76,0.52S1979.57,1191.76,1980.14,1191.99z"/>
			<path class="st16" d="M1918.44,1191.72c0,4.96,15.1,8.99,33.64,8.99c18.55,0,33.58-4.02,33.58-8.99c0-4.96-15.03-8.99-33.58-8.99
				C1933.53,1182.74,1918.44,1186.76,1918.44,1191.72z M1919.84,1191.72c0-4.6,14.47-8.32,32.24-8.32s32.18,3.73,32.18,8.33
				s-14.41,8.33-32.18,8.33S1919.84,1196.32,1919.84,1191.72z"/>
		</g>
		<path class="st17" d="M2001.44,1203.08c0,1.96-3.69,3.56-8.25,3.56c-4.56,0-8.25-1.59-8.25-3.56s3.69-3.56,8.25-3.56
			C1997.75,1199.53,2001.44,1201.12,2001.44,1203.08z"/>
		<path class="st17" d="M2000.8,1208.71c0,1.96-3.69,3.56-8.25,3.56c-4.56,0-8.25-1.59-8.25-3.56c0-1.97,3.69-3.56,8.25-3.56
			C1997.1,1205.15,2000.8,1206.74,2000.8,1208.71z"/>
		<path class="st17" d="M2000.19,1214.95c0,1.96-3.69,3.56-8.25,3.56c-4.56,0-8.25-1.59-8.25-3.56c0-1.97,3.69-3.56,8.25-3.56
			C1996.49,1211.39,2000.19,1212.98,2000.19,1214.95z"/>
		<path class="st17" d="M1999.78,1221.19c0,1.96-3.69,3.56-8.25,3.56c-4.56,0-8.25-1.59-8.25-3.56c0-1.97,3.69-3.56,8.25-3.56
			C1996.09,1217.63,1999.78,1219.22,1999.78,1221.19z"/>
		<path class="st12" d="M2486.13,1230.96c-10.91-36.79-94.78-132.82-124.09-137.8c-29.31-4.99-53.94,4.05-53.94,4.05
			s-29.93,19.02-55.81,5.61c0,0-6.91-1.16-16.97,0.46l0,0c0,0-55.08,48.36-28.86,108.35c0,0,8.11,59.86,8.73,106.31
			c0,0,11.54,24.63,69.21,23.07c57.68-1.56,65.16-27.44,65.16-27.44s6.86-113.49,16.52-131.88c0,0,61.42,49.26,62.67,54.87
			c1.25,5.61-32.11,67.34-43.34,81.06c0,0,7.79,17.29,34.29,23.45C2419.73,1341.09,2497.05,1267.75,2486.13,1230.96z"/>
		<path class="st18" d="M2235.33,1103.28L2235.33,1103.28c-14.96,2.4-36.9,10.93-53.49,38.52c-27.75,46.14-56.43,75.45-56.43,75.45
			l-67.03-7.48c0,0-8.11,25.57-4.05,37.1c0,0,48.95,29.31,77.32,19.95c28.37-9.35,74.83-55.18,74.83-55.18
			C2180.25,1151.64,2235.33,1103.28,2235.33,1103.28z"/>
	</g>
	<g>
		<polygon class="st0" points="2828.4,1634.17 2852.62,1980.35 2840.51,1980.35 2802.16,1637.92 		"/>
		<polygon class="st0" points="2574,1634.17 2549.77,1980.35 2561.88,1980.35 2600.24,1637.92 		"/>
		<g>
			<path class="st19" d="M2934.1,1279.06c0,0-193.61-5.74-206.14-4.84c-12.53,0.89-24.12,41.18-24.12,41.18
				s-56.56,209.83-55.43,215.6c1.13,5.77-52.76,140.98-52.76,140.98s46.49-1.24,48.54,0c2.06,1.24,179.77-15.25,182.24-16.9
				c2.47-1.65,11.52-32.57,11.93-34.21c0.41-1.65,13.99-122.02,13.99-122.02l6.99-66.37c0,0,26.74-56.94,27.15-57.12
				c0.41-0.18,25.09-50.06,26.74-52.53s27.15-30.09,27.97-32.57C2942.03,1287.78,2934.1,1279.06,2934.1,1279.06z"/>
			<path class="st20" d="M2934.1,1279.06c0,0-66.75-1.98-124.4-3.43c22.41,13.18,34.97,50.06,25.65,115.66
				c-7.92,55.75-16.73,116.25-51.83,188.8c-18.08,37.37-95.93,16.44-159.74,20.13c-13.75,35.68-28.12,71.75-28.12,71.75
				s46.49-1.24,48.54,0c2.06,1.24,179.77-15.25,182.24-16.9c2.47-1.65,11.52-32.57,11.93-34.21c0.41-1.65,13.99-122.02,13.99-122.02
				l6.99-66.37c0,0,26.74-56.94,27.15-57.12c0.41-0.18,25.09-50.06,26.74-52.53s27.15-30.09,27.97-32.57
				C2942.03,1287.78,2934.1,1279.06,2934.1,1279.06z"/>
			<g>
				<path class="st21" d="M2560.28,1679.37L2560.28,1679.37c-0.41-6.63,4.58-12.33,11.18-12.78c20.69-1.4,65.43-4.61,111.45-8.97
					c88.21-8.37,120.1-15.22,131.52-18.8c3.94-1.24,6.97-4.44,7.97-8.45c3.1-12.33,4.91-37.92,6.43-59.33
					c5.76-81.24,15.26-215.2,98.73-288.75c5.21-4.59,13.23-3.77,17.46,1.74l0,0c3.85,5.02,3.19,12.18-1.56,16.36
					c-76.04,66.77-84.77,189.9-90.62,272.37c-3.34,47.01-5.39,70.08-15.66,80.82c-4.95,5.18-14.17,14.81-148.29,27.7
					c-47.58,4.57-94.42,7.93-115.81,9.38C2566.43,1691.1,2560.69,1686.04,2560.28,1679.37z M2820.35,1636.39L2820.35,1636.39
					L2820.35,1636.39z"/>
			</g>
		</g>
	</g>
	<g>
		<polygon class="st0" points="1165.69,1634.17 1141.47,1980.35 1153.58,1980.35 1191.93,1637.92 		"/>
		<polygon class="st0" points="1420.1,1634.17 1444.32,1980.35 1432.21,1980.35 1393.86,1637.92 		"/>
		<g>
			<path class="st19" d="M1059.99,1279.06c0,0,193.61-5.74,206.14-4.84c12.53,0.89,24.12,41.18,24.12,41.18
				s56.56,209.83,55.43,215.6c-1.13,5.77,52.76,140.98,52.76,140.98s-46.48-1.24-48.54,0c-2.06,1.24-179.77-15.25-182.24-16.9
				c-2.47-1.65-11.52-32.57-11.93-34.21c-0.41-1.65-13.99-122.02-13.99-122.02l-6.99-66.37c0,0-26.74-56.94-27.15-57.12
				c-0.41-0.18-25.09-50.06-26.74-52.53s-27.15-30.09-27.97-32.57S1059.99,1279.06,1059.99,1279.06z"/>
			<path class="st20" d="M1059.99,1279.06c0,0,66.75-1.98,124.4-3.43c-22.41,13.18-34.97,50.06-25.65,115.66
				c7.92,55.75,16.73,116.25,51.83,188.8c18.08,37.37,95.93,16.44,159.73,20.13c13.75,35.68,28.13,71.75,28.13,71.75
				s-46.49-1.24-48.54,0c-2.06,1.24-179.77-15.25-182.24-16.9c-2.47-1.65-11.52-32.57-11.93-34.21
				c-0.41-1.65-13.99-122.02-13.99-122.02l-6.99-66.37c0,0-26.74-56.94-27.15-57.12c-0.41-0.18-25.09-50.06-26.74-52.53
				s-27.15-30.09-27.97-32.57S1059.99,1279.06,1059.99,1279.06z"/>
			<g>
				<path class="st21" d="M1421.01,1690.65c-21.39-1.45-68.23-4.81-115.81-9.38c-134.12-12.89-143.34-22.52-148.29-27.7
					c-10.27-10.74-12.33-33.81-15.66-80.82c-5.85-82.47-14.58-205.59-90.62-272.37c-4.75-4.17-5.41-11.34-1.56-16.36l0,0
					c4.23-5.51,12.25-6.33,17.45-1.74c83.47,73.55,92.97,207.51,98.73,288.75c1.52,21.41,3.33,47,6.43,59.33
					c1.01,4.01,4.04,7.21,7.98,8.45c11.41,3.58,43.31,10.43,131.52,18.8c46.02,4.37,90.76,7.57,111.45,8.97
					c6.6,0.45,11.59,6.16,11.18,12.77v0.01C1433.4,1686.04,1427.66,1691.1,1421.01,1690.65z M1173.74,1636.39L1173.74,1636.39
					L1173.74,1636.39z"/>
			</g>
		</g>
	</g>
	<g>
		<path class="st22" d="M3093.55,1715.08c-1.46-12.87-3.19-26.03-9.18-37.52c-7.28-13.97-20.07-24.04-31.24-35.14
			c-20.88-20.74-36.94-46.29-46.58-74.09c-7.46-21.5-11.17-44.4-21.45-64.7c-6.27-12.4-14.83-23.48-21.95-35.41
			c-13.55-22.67-22.13-48.66-36.85-70.24c-4.02-5.9-13.34-2.81-13.02,4.32c0.98,22.48,9.5,44.65,24.18,61.74
			c5.62,6.55,12.15,12.45,16.43,19.94c7.78,13.6,7.07,30.2,7.98,45.84c1.71,29.4,10.01,58.39,24.12,84.24
			c14.98,27.46,36.61,51.91,44.62,82.15c6,22.66,4.22,48.08,17.02,67.72c1.39,2.13,2.97,4.27,3.31,6.78
			c0.19,1.42-0.03,2.85-0.25,4.26c-0.29,1.83-0.57,3.65-0.86,5.47c-2.91,18.55-5.92,42.14,10.05,56.02
			c11.07,9.62,25.31,9.83,33.26-2.94c8-12.87,7.29-31.7,6.7-46.18C3098.86,1763.23,3096.27,1739.05,3093.55,1715.08z"/>
		<path class="st23" d="M3122.32,1700.16c-6.21-21.47-15.86-41.92-20.69-63.74c-4.69-21.17-4.72-43.05-4.74-64.73
			c-0.02-23.75-0.03-47.51-0.05-71.26c-0.01-14.79-0.03-29.66-2.48-44.24c-5.27-31.38-21.61-60.4-24.38-92.1
			c-1.2-13.71,0.19-27.56-1.32-41.24c-0.86-7.81-2.87-15.79-6.5-22.72c-3.9-7.46-14.67-7.13-18.2,0.51
			c-7.94,17.16-12.97,35.72-9.77,54.11c1.92,11.03,6.71,21.32,10.29,31.93c15.92,47.26,7.47,99.57,19.78,147.89
			c3.72,14.58,9.34,28.89,9.99,43.93c1.57,35.99-25.37,68.87-22.9,104.81c2.03,29.47,23.25,53.85,32.17,82.01
			c4.99,15.76,6.06,32.59,11.4,48.24c4.15,12.16,13.81,26.92,28.81,23.23c14.24-3.5,9.94-15.1,9.3-26.18
			C3130.89,1773.13,3132.91,1736.77,3122.32,1700.16z"/>
		<path class="st22" d="M3154.91,1719.83c-0.63-11.16-2.51-22.37-0.95-33.44c1.32-9.34,5.05-18.15,7.71-27.2
			c4.99-16.96,6.22-34.77,7.43-52.41c2.2-32.07,4.39-64.13,6.59-96.2c3.41-49.85,6.84-99.83,16.18-148.92
			c2.59-13.63,5.5-28.39-0.63-40.83c-1.29-2.62-3.84-5.4-6.63-4.53c-1.99,0.62-2.96,2.81-3.68,4.76
			c-20.42,55.37-28.13,114.97-50.92,169.4c-5.46,13.04-11.81,25.87-14.63,39.72c-3.39,16.63-1.53,33.81-1.09,50.78
			c0.63,24.34-1.75,48.86-8.48,72.25c-3.52,12.24-8.24,24.2-10.17,36.79c-2.41,15.7-0.39,31.69,1.12,47.5
			c2.9,30.39,3.88,60.97,2.94,91.49c-0.55,17.94,14.62,17.47,24.68,6.45c7.03-7.71,6.97-16.17,9.37-25.77
			C3141.64,1778.18,3156.83,1753.99,3154.91,1719.83z"/>
		<path class="st23" d="M3060.09,1768.49c-13.42-21.52-40.16-33.75-48.73-57.62c-2.18-6.07-3.04-12.6-5.7-18.48
			c-5.92-13.05-19.39-20.43-32.62-26.43c-1.84-0.83-3.93,0.5-3.96,2.51l0,0c-0.04,3.21,1.48,6.27,4.14,8.06
			c10.2,6.85,17.95,17.32,21.4,29.12c4.09,13.99,2.32,29.32,7.4,42.98c4.27,11.46,13.05,20.84,17.18,32.35
			c3.77,10.53,3.38,22.03,5.15,33.07c1.77,11.04,6.69,22.76,16.85,27.43C3077.95,1858.39,3068.76,1782.39,3060.09,1768.49z"/>
		<path class="st22" d="M3212.98,1761.38c-0.57,10.4,1.02,21.31-3.06,30.9c-2.61,6.13-7.3,11.09-11.16,16.53
			c-13.53,19.1-18.44,46.16-39.23,56.92c-1.37,0.71-2.9,1.34-4.42,1.06c-2.13-0.4-3.53-2.45-4.38-4.44
			c-5.1-11.85,0.62-25.21,4.01-37.65c0.59-2.18,1.09-4.61,0.05-6.61c-1.14-2.2-3.75-3.16-5.54-4.89c-3.55-3.45-3.22-9.15-2.51-14.05
			c1.76-12.24,4.24-24.38,7.42-36.34c1.8-6.78,3.88-13.62,7.79-19.44c4.31-6.41,10.57-11.19,16.42-16.22
			c25.89-22.23,45.72-51.44,56.83-83.71c2.4-6.98,4.54-14.36,9.51-19.83c4.96-5.47,13.81-8.29,19.86-4.04
			c4.3,3.02-13.32,31.3-15.37,34.69c-5.87,9.69-5.95,18.12-9.27,28.89C3231.8,1709.53,3214.54,1733.13,3212.98,1761.38z"/>
		<path class="st23" d="M3192.49,1773.42c3.85-9.92,7.72-19.98,8.99-30.55c1.41-11.75-0.46-23.76,1.55-35.42
			c2.58-14.99,11.34-28.17,15.68-42.75c3.13-10.53,3.9-21.59,5.78-32.42c5.38-30.95,19.96-61.19,15.77-92.32
			c-0.91-6.77-3.97-14.66-10.71-15.82c-6.1-1.04-11.65,4.52-13.23,10.5c-1.58,5.98-0.4,12.28,0.03,18.45
			c1.21,17.21-3.71,34.78-13.67,48.86c-9.58,13.52-23.47,23.71-32.09,37.86c-10.57,17.36-12.01,38.56-17.41,58.16
			c-10.73,38.98-37.64,72.98-42.54,113.1c-1.95,15.97,1.8,35.38,16.57,41.75C3169.92,1871.27,3182.82,1798.38,3192.49,1773.42z"/>
		<path class="st0" d="M3117.83,1802.74H3111h-91.18c-6.7,0-11.65,6.26-10.1,12.78l35.73,150.35c1.11,4.68,5.29,7.98,10.1,7.98H3111
			h6.83h55.45c4.81,0,8.98-3.3,10.1-7.98l35.73-150.35c1.55-6.52-3.39-12.78-10.1-12.78H3117.83z"/>
		<path class="st24" d="M3028.32,1802.74h-8.51c-6.7,0-11.65,6.26-10.1,12.78l35.73,150.35c1.11,4.68,5.29,7.98,10.1,7.98H3111h6.83
			h55.45c4.81,0,8.98-3.3,10.1-7.98l1.32-5.57C3117.8,1922.86,3052.54,1870.73,3028.32,1802.74z"/>
	</g>
	<path class="st25" d="M2625.76,124.32v137.48c-9.26,1.45-16.66,13.71-17.16,28.9c-29.39,12.86-51.35,55.88-51.96,107.22
		l138.93,1.66c0.61-51.35-20.31-94.87-49.39-108.43c-0.04-4.67-0.75-9.07-1.97-12.99c-2.84-8.17-7.99-13.1-7.99-13.1
		c-0.83-0.7-1.71-1.29-2.61-1.79V128.09C2631.01,126.82,2628.39,125.56,2625.76,124.32z"/>
	<path class="st25" d="M1492.71,277.35v246.98c-8.12,2.98-14.33,14.41-14.79,28.28c-29.39,12.86-51.35,55.88-51.96,107.22
		l138.93,1.66c0.61-51.35-20.31-94.87-49.39-108.43c-0.04-4.67-0.75-9.08-1.97-12.99c-2.84-8.17-7.99-13.1-7.99-13.1
		c-1.54-1.3-3.21-2.26-4.98-2.82v-249.1C1497.95,275.82,1495.32,276.6,1492.71,277.35z"/>
	<path class="st25" d="M1913.85,322.89c-0.04-4.67-0.75-9.08-1.97-12.99c-2.84-8.17-7.99-13.1-7.99-13.1
		c-1.89-1.59-3.98-2.68-6.19-3.15V120.69c-2.63,1.08-5.25,2.18-7.86,3.29v170.69c-7.52,3.63-13.14,14.6-13.58,27.77
		c-29.39,12.86-51.35,55.88-51.96,107.22l138.93,1.66C1963.85,379.98,1942.93,336.45,1913.85,322.89z"/>
	<path class="st25" d="M2395.98,615.89c0.61-51.35-20.31-94.87-49.39-108.43c-0.04-4.67-0.75-9.08-1.97-12.99
		c-2.84-8.17-7.99-13.1-7.99-13.1c-1.89-1.59-3.98-2.68-6.19-3.15V50.85c-2.62-0.16-5.24-0.31-7.86-0.45v428.83
		c-7.52,3.63-13.14,14.6-13.58,27.77c-29.39,12.86-51.35,55.88-51.96,107.22L2395.98,615.89z"/>
	<g>
		<path class="st3" d="M2644.75,1204.81v48.06c0,2.67-1.34,5.1-3.45,6.24c-6.43,3.44-20.8,9.08-34.21,0.09
			c-1.81-1.21-2.88-3.49-2.88-5.89v-43.41L2644.75,1204.81z"/>
		<path class="st7" d="M2644.75,1237.16v-22.56l-40.54,4.46v19.14C2611.81,1240.51,2625.97,1242.82,2644.75,1237.16z"/>
		<path class="st3" d="M2590.98,1251.16c1.46,0.96,64.65,0,64.65,0s6.97,6.89,5.8,8.05c-1.16,1.16-25.22,17.71-25.22,17.71
			l-32.01-4.35L2590.98,1251.16z"/>
		<path class="st3" d="M2408.78,1275.98c0,0-24.96,162.61,10.7,195.91c35.66,33.31,102.93-55.18,102.93-55.18l14.37-57.8
			l-62.82,19.67l-22.73,28.01l-11.75-150.85L2408.78,1275.98z"/>
		<g>
			<path class="st26" d="M2432.25,1222.9l0.33,0.29l18.47,16.06c2.01,1.75,2.12,4.83,0.25,6.72l-41.2,41.49
				c-1.37,1.38-3.46,1.75-5.22,0.92c-4.03-1.9-11.52-5.89-18.73-12.15s-12.19-13.13-14.63-16.86c-1.07-1.63-0.99-3.75,0.19-5.3
				l35.38-46.55c1.61-2.12,4.68-2.43,6.69-0.69L2432.25,1222.9z"/>
			<path class="st8" d="M2414.39,1197.03c2.02-1.35,4.28-1.45,5.65-0.26l19.89,17.3l0.33,0.29l19.89,17.3
				c1.38,1.2,1.59,3.44,0.53,5.63l-3.52,7.3c-0.99,2.05-3.66,2.6-5.37,1.1l-22.08-19.21l-0.33-0.29l-22.08-19.21
				c-1.72-1.49-1.54-4.21,0.35-5.47L2414.39,1197.03z"/>
			<path class="st8" d="M2422.85,1193.6c0.72-0.82,1.96-0.91,2.79-0.19l18.37,15.98l0.33,0.29l18.37,15.98
				c0.82,0.72,0.91,1.96,0.19,2.79l-3.89,4.47l-18.93-18.68l-21.12-16.16L2422.85,1193.6z"/>
			<path class="st27" d="M2445.27,1254.88l-19.08,18.55c-0.32,0.32-0.81,0.4-1.22,0.2c-2.71-1.31-13.06-6.59-23.17-15.38
				c-10.11-8.8-16.77-18.31-18.45-20.81c-0.25-0.38-0.24-0.87,0.03-1.23l15.72-21.47c0.42-0.58,1.29-0.59,1.72-0.02
				c8.02,10.61,32.6,31.99,44.22,38.46C2445.68,1253.52,2445.79,1254.38,2445.27,1254.88z"/>
			<path class="st28" d="M2407.17,1239.6c-4.59,3.59-5.41,10.22-1.82,14.82s10.22,5.41,14.82,1.82s5.41-10.22,1.82-14.82
				S2411.77,1236.01,2407.17,1239.6z"/>
		</g>
		<polygon class="st3" points="2419.22,1880.95 2412.77,1932.79 2378.09,1935.48 2378.62,1887.42 		"/>
		<g>
			<path class="st0" d="M2325.38,1973.43l94.76,0.64c2.07,0.01,3.74-1.62,3.72-3.65l-0.02-2.73c-0.02-2.03-1.71-3.68-3.78-3.7
				l-94.76-0.64c-2.07-0.01-3.74,1.62-3.72,3.65l0.02,2.73C2321.62,1971.76,2323.31,1973.41,2325.38,1973.43z"/>
			<path class="st29" d="M2418.85,1933.36l3.63,28.06c0.45,3.46-1.5,6.58-4.09,6.57l-90.11-0.61c-2.34-0.02-4.67-1.46-5.92-4.16
				c-1.28-2.77-1.57-6.92,2.41-12.48c7.97-11.12,34.45-13.66,47.33-23.11l41.97,0.28
				C2416.43,1927.92,2418.45,1930.23,2418.85,1933.36z"/>
			<g>
				<path class="st0" d="M2378.62,1943.94L2378.62,1943.94c0.65-0.39,0.88-1.46,0.49-2.28c-1.8-3.85-7.42-13.24-18.65-11.4
					c-0.65,0.11-1.08,0.95-0.96,1.82l0,0.03c0.12,0.84,0.71,1.4,1.33,1.3c10.07-1.62,14.84,6.66,16.3,9.89
					C2377.45,1943.99,2378.09,1944.27,2378.62,1943.94z"/>
			</g>
			<g>
				<path class="st0" d="M2369.3,1947.49L2369.3,1947.49c0.65-0.39,0.88-1.46,0.49-2.28c-1.8-3.85-7.42-13.24-18.65-11.4
					c-0.65,0.11-1.08,0.95-0.96,1.82l0,0.03c0.11,0.84,0.71,1.4,1.33,1.3c10.07-1.62,14.84,6.66,16.3,9.89
					C2368.13,1947.54,2368.76,1947.81,2369.3,1947.49z"/>
			</g>
			<g>
				<path class="st0" d="M2360.62,1950.8L2360.62,1950.8c0.65-0.39,0.88-1.46,0.49-2.28c-1.8-3.85-7.42-13.24-18.65-11.4
					c-0.65,0.11-1.08,0.95-0.96,1.82l0,0.03c0.11,0.85,0.71,1.4,1.33,1.3c10.07-1.62,14.84,6.66,16.3,9.89
					C2359.45,1950.84,2360.08,1951.12,2360.62,1950.8z"/>
			</g>
			<path class="st30" d="M2394.34,1967.82c6.9-22.6,19.12-25.02,25.81-24.45l2.34,18.04c0.45,3.46-1.5,6.58-4.09,6.57
				L2394.34,1967.82z"/>
		</g>
		<polygon class="st3" points="2472.46,1882.06 2457.13,1932.08 2421.83,1932.32 2427.98,1895.81 		"/>
		<g>
			<path class="st0" d="M2371.13,1974.35l94.76,0.64c2.07,0.01,3.74-1.62,3.72-3.65l-0.02-2.73c-0.02-2.03-1.71-3.68-3.78-3.7
				l-94.76-0.64c-2.07-0.01-3.74,1.62-3.72,3.65l0.02,2.73C2367.36,1972.68,2369.06,1974.34,2371.13,1974.35z"/>
			<path class="st31" d="M2464.6,1934.28l3.63,28.06c0.45,3.46-1.5,6.58-4.09,6.57l-90.11-0.61c-2.34-0.02-4.67-1.46-5.92-4.16
				c-1.29-2.77-1.57-6.92,2.41-12.48c7.97-11.12,34.45-13.66,47.33-23.11l41.98,0.28
				C2462.17,1928.85,2464.19,1931.16,2464.6,1934.28z"/>
			<g>
				<path class="st0" d="M2424.37,1944.87L2424.37,1944.87c0.65-0.39,0.88-1.46,0.49-2.28c-1.8-3.85-7.42-13.24-18.65-11.4
					c-0.65,0.11-1.08,0.95-0.96,1.82l0,0.03c0.11,0.84,0.7,1.4,1.33,1.3c10.07-1.62,14.84,6.66,16.3,9.89
					C2423.2,1944.92,2423.83,1945.19,2424.37,1944.87z"/>
			</g>
			<g>
				<path class="st0" d="M2415.04,1948.42L2415.04,1948.42c0.65-0.39,0.88-1.46,0.49-2.28c-1.8-3.85-7.41-13.24-18.65-11.4
					c-0.65,0.11-1.08,0.95-0.96,1.82l0,0.03c0.11,0.85,0.7,1.4,1.33,1.3c10.07-1.62,14.84,6.66,16.3,9.89
					C2413.87,1948.46,2414.5,1948.74,2415.04,1948.42z"/>
			</g>
			<g>
				<path class="st0" d="M2406.37,1951.72L2406.37,1951.72c0.65-0.39,0.88-1.46,0.49-2.28c-1.8-3.85-7.42-13.24-18.65-11.4
					c-0.65,0.11-1.08,0.95-0.96,1.82l0,0.03c0.12,0.84,0.71,1.4,1.33,1.3c10.07-1.62,14.84,6.66,16.3,9.89
					C2405.2,1951.77,2405.83,1952.05,2406.37,1951.72z"/>
			</g>
			<path class="st30" d="M2440.09,1968.75c6.9-22.6,19.12-25.02,25.8-24.45l2.34,18.04c0.45,3.46-1.5,6.58-4.09,6.57
				L2440.09,1968.75z"/>
		</g>
		<path class="st32" d="M2583.97,1548.14c0,0-175.64,19.34-209.13,51.04s-11.03,270.29-5.45,292.16c0,0,30.57,14.57,54.76,7.11
			c24.19-7.46,14.89-111.88,14.89-111.88s-2.79-99.76,0.93-113.74c3.72-13.98,54.89-24.24,54.89-24.24s123.04-64.58,118.38-64.58
			C2608.59,1584.01,2583.97,1548.14,2583.97,1548.14z"/>
		<path class="st33" d="M2778.4,1589.67c0.74-45.17-12.27-84-12.27-84l-78.84,68.07l-0.69-6.08c0,0-197.33-23.49-224.31,66.01
			c-26.98,89.5-47.45,266.64-47.45,266.64s26.05,15.85,61.4,0c0,0,50-190.19,68.73-208.84c11.94-11.89,86.13-25.57,129.52-26.22
			C2719.33,1664.59,2777.53,1643.18,2778.4,1589.67z"/>
		<path class="st34" d="M2590.98,1251.16c0,0-44.19,8.05-66.83,33.31c-22.64,25.25-53.55,87.94-53.55,87.94s23.26,46.54,48.02,50.5
			l55.16-53.55L2590.98,1251.16z"/>
		<path class="st35" d="M2590.98,1251.16c0,0-41.14,33.96-47.02,64.65c-5.88,30.69,4.57,241.63,4.57,241.63
			s31.35,33.96,125.38,22.86c0,0,88.16-80.98,90.12-82.94s-39.84-80.52-39.84-80.52s47.67-12.22,59.43-27.89
			c0,0-14.37-144.98-128-137.79C2655.63,1251.16,2627.55,1275.98,2590.98,1251.16z"/>
		<path class="st3" d="M2783.63,1388.96c0,0-7.84,12.68-59.43,27.89c0,0,16.33,55.05,15.02,67.46
			c-1.26,11.97-101.02,120.62-108.01,128.22l-0.69-0.34c0,0-53.43,16.93-54.07,19.15c-0.61,2.11,0.84,3.34,20.41,4.41
			c1.27,0.07,1.97,1.52,1.21,2.54c-5.86,7.92-24.12,32.95-22.45,34.89c2,2.31,18.87-19.66,21.57-18.79
			c2.7,0.87-14.29,21.88-11.76,24.01c2.53,2.13,17.39-17.55,18.77-17.03c1.38,0.53-10.83,20.9-10.09,23.04
			c0.74,2.14,16.43-18.02,18.28-17.86c1.86,0.16-4.33,17.67-2.89,18.37c1.44,0.7,2.29,1.41,27.54-34.02l9.34-14.37l0.09-1.05
			c10-5.38,136.45-74.32,150.88-127.01C2812.36,1453.61,2783.63,1388.96,2783.63,1388.96z"/>
		<path class="st3" d="M2406.14,1209.34c4.87,4.77,6.52,10.97,3.69,13.86c-2.83,2.89-9.07,1.37-13.94-3.39
			c-4.87-4.77-6.52-10.97-3.69-13.86C2395.03,1203.06,2401.27,1204.58,2406.14,1209.34z"/>
		<path class="st3" d="M2398.74,1216.9c4.87,4.77,6.52,10.97,3.69,13.86c-2.83,2.89-9.07,1.37-13.94-3.39s-6.52-10.97-3.69-13.86
			C2387.63,1210.62,2393.87,1212.14,2398.74,1216.9z"/>
		<path class="st3" d="M2391.34,1224.47c4.87,4.77,6.52,10.97,3.69,13.86c-2.83,2.89-9.07,1.37-13.94-3.39
			c-4.87-4.77-6.52-10.97-3.69-13.86C2380.23,1218.18,2386.47,1219.7,2391.34,1224.47z"/>
		<path class="st3" d="M2383.93,1232.03c4.87,4.77,6.52,10.97,3.69,13.86c-2.83,2.89-9.07,1.37-13.94-3.39
			c-4.87-4.77-6.52-10.97-3.69-13.86C2372.82,1225.74,2379.06,1227.26,2383.93,1232.03z"/>
		<path class="st0" d="M2594.96,1196.39c0.86,6.19,6.37,11.18,13.34,11.64s13.07-3.78,14.72-9.8L2594.96,1196.39z"/>
		<path class="st6" d="M2683.02,1170.69c0,0,14.62-52.35-13.75-73.54c-28.36-21.19-59.45-20.43-81.09-9.54
			c-21.64,10.89-36.11,51.71-27.69,75.81l71.07-19.32L2683.02,1170.69z"/>
		<path class="st7" d="M2574.49,1170.15c2.61,6.78,0.33,13.97-5.08,16.06s-11.91-1.71-14.52-8.49c-2.61-6.78-0.33-13.97,5.08-16.06
			S2571.88,1163.37,2574.49,1170.15z"/>
		<path class="st3" d="M2575.67,1209.54c-1.62-2.93-2.97-6.04-4.04-9.28c-3.05-8.71-4.5-17.93-5.12-25.96
			c-0.13-1.72-0.37-3.43-0.63-5.14c-1.07-6.89-0.91-14.18,0.85-21.64c5.64-24.01,26.75-41.77,51.33-43.12
			c33.11-1.82,59.94,24.85,59.32,57.18c3.54-1.89,7.49-2.26,10.93-0.64c6.6,3.11,8.81,12.32,4.93,20.59s-12.36,12.45-18.96,9.34
			c-0.92-0.43-1.74-0.99-2.48-1.64c-3.32,27.46-26.22,48.26-53.19,47.3c-13.19-0.47-25.04-6.07-33.86-14.9
			c-0.59-0.52-1.21-1.12-1.86-1.82C2580.02,1216.73,2577.65,1213.25,2575.67,1209.54z"/>
		<path class="st7" d="M2608.73,1159.71c-0.37,3.2-0.65,6.33-1.07,9.38c-0.45,2.98-1.04,6.17-2.41,8.18l-0.27,0.32
			c-0.1,0.12-0.13,0.18-0.33,0.4c-0.32,0.38-0.69,0.69-0.94,1.14c-0.56,0.83-0.98,1.82-1.08,2.87c-0.25,2.12,0.71,4.11,2.01,5.39
			c2.66,2.64,6.34,3.18,9.46,2.67c-3.08-0.81-5.99-2.14-7.56-4.33c-0.72-1.08-1.17-2.26-0.89-3.31c0.1-0.52,0.32-1.02,0.67-1.48
			c0.13-0.25,0.4-0.44,0.58-0.67l0.44-0.5l0.5-0.58c1.14-1.63,1.61-3.34,1.94-5c0.29-1.67,0.41-3.31,0.39-4.94
			C2610.12,1166,2609.69,1162.79,2608.73,1159.71z"/>
		<path class="st8" d="M2626.92,1165.48c-0.1,2.71,2.02,4.98,4.72,5.08c2.7,0.1,4.97-2.02,5.07-4.73s-2.02-4.98-4.72-5.08
			C2629.29,1160.66,2627.02,1162.77,2626.92,1165.48z"/>
		<path class="st8" d="M2584.81,1166.74c-0.1,2.71,2.02,4.98,4.72,5.08c2.7,0.1,4.97-2.02,5.07-4.73c0.1-2.71-2.02-4.98-4.72-5.08
			C2587.18,1161.92,2584.91,1164.04,2584.81,1166.74z"/>
		<path class="st6" d="M2621.71,1153.93c2.55-0.56,4.93-0.96,7.28-1.12c2.34-0.17,4.61-0.04,6.79,0.41
			c2.17,0.48,4.33,1.13,6.38,2.27c1.1,0.44,2.02,1.19,3.12,1.76c1.05,0.64,2.01,1.42,3.2,2.06c-0.52-1.19-1.15-2.35-1.9-3.44
			c-0.84-1-1.64-2.11-2.73-2.91c-2.01-1.81-4.63-2.97-7.32-3.54c-2.71-0.56-5.54-0.39-8.11,0.41
			C2625.86,1150.65,2623.48,1151.97,2621.71,1153.93z"/>
		<path class="st6" d="M2600.02,1154.58c-1.83-1.91-4.25-3.16-6.83-3.89c-2.59-0.71-5.42-0.79-8.11-0.16
			c-2.67,0.65-5.25,1.89-7.21,3.76c-1.07,0.83-1.83,1.97-2.64,2.99c-0.72,1.11-1.31,2.3-1.79,3.5c1.17-0.68,2.1-1.49,3.13-2.16
			c1.08-0.6,1.98-1.38,3.07-1.86c2.01-1.2,4.15-1.92,6.3-2.47c2.17-0.52,4.43-0.71,6.77-0.62
			C2595.06,1153.77,2597.45,1154.09,2600.02,1154.58z"/>
		<path class="st6" d="M2676.53,1162.29c3.34-2.65,5.8-2.33,5.8-2.33l-0.72-17.17l-4.86-10.54c0,0-19.58-28.64-20.28-29.36
			c-0.7-0.72-16.17-10.38-17.13-10.88c-0.96-0.5-23.32,1.89-23.32,1.89s-38.73-9.7-33.02,11.06c5.71,20.76,33.77,32.74,35.28,31.89
			c-4.44-4.79-4.35-17.85-4.35-17.85C2633.18,1141.84,2670.68,1159.61,2676.53,1162.29z"/>
		<path class="st0" d="M2598.85,1198.17c1.64,6.03,7.73,10.29,14.71,9.86s12.49-5.4,13.36-11.59L2598.85,1198.17z"/>
	</g>
	<g>
		<polygon class="st3" points="1589.94,1886.25 1595.88,1934.06 1627.87,1936.55 1627.37,1892.21 		"/>
		<g>
			<path class="st0" d="M1676.48,1971.54l-87.39,0.59c-1.91,0.01-3.45-1.49-3.43-3.36l0.02-2.52c0.02-1.87,1.58-3.4,3.49-3.41
				l87.39-0.59c1.91-0.01,3.45,1.49,3.43,3.36l-0.02,2.52C1679.95,1970,1678.39,1971.53,1676.48,1971.54z"/>
			<path class="st36" d="M1590.27,1934.59l-3.35,25.88c-0.41,3.19,1.38,6.07,3.77,6.06l83.11-0.56c2.16-0.01,4.3-1.35,5.46-3.84
				c1.18-2.55,1.45-6.39-2.22-11.51c-7.35-10.25-31.77-12.6-43.66-21.31l-38.71,0.26
				C1592.51,1929.57,1590.65,1931.7,1590.27,1934.59z"/>
			<g>
				<path class="st0" d="M1627.37,1944.35L1627.37,1944.35c-0.6-0.36-0.81-1.35-0.45-2.1c1.66-3.55,6.84-12.21,17.2-10.51
					c0.6,0.1,1,0.88,0.89,1.68l0,0.03c-0.11,0.78-0.65,1.29-1.23,1.2c-9.29-1.49-13.69,6.14-15.04,9.12
					C1628.45,1944.39,1627.87,1944.65,1627.37,1944.35z"/>
			</g>
			<g>
				<path class="st0" d="M1635.98,1947.62L1635.98,1947.62c-0.6-0.36-0.81-1.35-0.45-2.1c1.66-3.55,6.84-12.21,17.2-10.51
					c0.6,0.1,1,0.88,0.89,1.68l0,0.03c-0.11,0.78-0.65,1.29-1.23,1.2c-9.29-1.49-13.69,6.14-15.04,9.12
					C1637.06,1947.66,1636.47,1947.92,1635.98,1947.62z"/>
			</g>
			<g>
				<path class="st0" d="M1643.98,1950.67L1643.98,1950.67c-0.6-0.36-0.81-1.35-0.45-2.1c1.66-3.55,6.84-12.21,17.2-10.51
					c0.6,0.1,1,0.88,0.89,1.68l0,0.03c-0.11,0.78-0.65,1.29-1.23,1.2c-9.29-1.49-13.69,6.14-15.04,9.12
					C1645.06,1950.71,1644.47,1950.97,1643.98,1950.67z"/>
			</g>
			<path class="st30" d="M1612.88,1966.37c-6.36-20.84-17.63-23.07-23.8-22.55l-2.16,16.64c-0.41,3.19,1.38,6.07,3.77,6.06
				L1612.88,1966.37z"/>
		</g>
		<polygon class="st3" points="1540.83,1887.27 1554.97,1933.41 1587.53,1933.63 1581.86,1899.95 		"/>
		<g>
			<path class="st0" d="M1634.29,1972.4l-87.39,0.59c-1.91,0.01-3.45-1.49-3.43-3.36l0.02-2.52c0.02-1.87,1.58-3.4,3.49-3.41
				l87.39-0.59c1.91-0.01,3.45,1.49,3.43,3.36l-0.02,2.52C1637.76,1970.86,1636.2,1972.38,1634.29,1972.4z"/>
			<path class="st26" d="M1548.08,1935.44l-3.35,25.88c-0.41,3.19,1.38,6.07,3.77,6.06l83.11-0.56c2.16-0.01,4.3-1.35,5.46-3.84
				c1.19-2.55,1.45-6.39-2.22-11.51c-7.35-10.25-31.78-12.6-43.66-21.31l-38.71,0.26
				C1550.32,1930.43,1548.46,1932.56,1548.08,1935.44z"/>
			<g>
				<path class="st0" d="M1585.19,1945.21L1585.19,1945.21c-0.6-0.36-0.81-1.35-0.45-2.1c1.66-3.55,6.84-12.21,17.2-10.51
					c0.6,0.1,1,0.88,0.89,1.68l0,0.03c-0.11,0.78-0.65,1.29-1.23,1.2c-9.29-1.49-13.69,6.14-15.04,9.12
					C1586.26,1945.25,1585.68,1945.5,1585.19,1945.21z"/>
			</g>
			<g>
				<path class="st0" d="M1593.79,1948.47L1593.79,1948.47c-0.6-0.36-0.81-1.35-0.45-2.1c1.66-3.55,6.84-12.21,17.2-10.51
					c0.6,0.1,1,0.88,0.89,1.68l0,0.03c-0.11,0.78-0.65,1.29-1.23,1.2c-9.29-1.49-13.69,6.14-15.04,9.12
					C1594.87,1948.52,1594.28,1948.77,1593.79,1948.47z"/>
			</g>
			<g>
				<path class="st0" d="M1601.79,1951.53L1601.79,1951.53c-0.6-0.36-0.81-1.35-0.45-2.1c1.66-3.55,6.84-12.21,17.2-10.51
					c0.6,0.1,1,0.88,0.89,1.68l0,0.03c-0.11,0.78-0.65,1.29-1.23,1.2c-9.29-1.49-13.69,6.14-15.04,9.12
					C1602.87,1951.57,1602.28,1951.82,1601.79,1951.53z"/>
			</g>
			<path class="st30" d="M1570.69,1967.23c-6.36-20.84-17.63-23.07-23.8-22.55l-2.16,16.64c-0.41,3.19,1.38,6.07,3.77,6.06
				L1570.69,1967.23z"/>
		</g>
		<path class="st32" d="M1437.99,1553.89c0,0,161.99,17.83,192.88,47.07c30.89,29.23,6.83,282.06,1.68,302.24
			c0,0-28.19,13.43-50.5,6.55s-10.38-135.96-10.38-135.96s2.57-92-0.86-104.9s-50.63-22.36-50.63-22.36s-155.42-74.36-151.12-74.36
			C1373.34,1572.17,1437.99,1553.89,1437.99,1553.89z"/>
		<path class="st33" d="M1258.66,1592.19c0.75-41.65,11.32-77.47,11.32-77.47l72.71,62.78l0.64-5.61c0,0,181.99-21.66,206.88,60.88
			c24.88,82.54,41.22,278,41.22,278s-18.24,23.98-50.84,9.37c0,0-49.37-216.86-66.63-234.05
			C1462.94,1675.12,1256.93,1688,1258.66,1592.19z"/>
		<path class="st3" d="M1506.72,1269.99c0.69,0.66,1.83,0.29,2-0.64c1.31-7.25,5.56-30.03,7.48-30.12
			c2.28-0.1-1.03,20.35,0.83,21.38c1.86,1.02,4.58-19.01,7.04-18.72s-0.64,18.47,0.36,18.95c0.99,0.48,5.82-16.62,7.37-17.31
			c1.55-0.7-1.39,18.19-0.35,19.11c1.04,0.93,7.4-11.42,8.52-11c1.12,0.42,1.94,0.52-4.4,32.44l-3.03,12.46l-7.97,8.82l-13.42-4.97
			c0,0-18.19-37.78-17.31-39.26C1494.7,1259.72,1496.11,1259.88,1506.72,1269.99z"/>
		<path class="st37" d="M1451.31,1396.56c0,0,24.81,58.75,67.24,59.41c42.43,0.65,17.63-163.86,17.63-163.86h-31.99
			c0,0-4.54,87.48-6.84,88.13c-2.3,0.65-22.54-48.31-22.54-48.31L1451.31,1396.56z"/>
		<g>
			<polygon class="st3" points="1356.43,1204.89 1354.5,1233.22 1382.12,1250.24 1393.11,1244.83 1393.72,1209.75 			"/>
			<path class="st7" d="M1393.33,1232.56l0.4-22.81l-37.3-4.86l-0.8,11.74C1362.93,1222.54,1375.68,1230.46,1393.33,1232.56z"/>
			<path class="st8" d="M1318.05,1162.13c0,0-18.12-45.18,7.77-66.48c25.89-21.3,56.08-23.36,77.87-15.6
				c21.79,7.76,38.9,42.72,32.56,64.85l-70.34-10.9L1318.05,1162.13z"/>
			<path class="st7" d="M1428.56,1154.35c-1.57,6.62,1.61,12.91,7.09,14.06c5.48,1.15,11.2-3.28,12.76-9.89
				c1.57-6.62-1.61-12.91-7.09-14.06S1430.13,1147.73,1428.56,1154.35z"/>
			<path class="st3" d="M1432.88,1190.79c1.15-2.93,2.02-5.98,2.59-9.12c1.72-8.46,1.84-17.16,1.32-24.64
				c-0.11-1.61-0.12-3.21-0.1-4.82c0.07-6.5-1.09-13.19-3.81-19.81c-8.73-21.3-31.45-34.64-55.23-32.37
				c-32.03,3.05-54.09,31.45-49.03,61.14c-3.66-1.23-7.51-1.01-10.58,0.97c-5.9,3.8-6.75,12.61-1.89,19.66s13.59,9.69,19.49,5.89
				c0.82-0.53,1.53-1.16,2.15-1.86c6.99,24.81,31.84,40.7,57.6,35.95c12.6-2.32,23.19-9.17,30.44-18.56c0.5-0.56,1.01-1.2,1.54-1.94
				C1429.7,1198.03,1431.49,1194.49,1432.88,1190.79z"/>
			<path class="st8" d="M1379.58,1161.58c0.5,2.67-1.34,5.25-4.12,5.76s-5.44-1.24-5.94-3.91c-0.5-2.67,1.34-5.25,4.12-5.76
				C1376.42,1157.17,1379.08,1158.91,1379.58,1161.58z"/>
			<path class="st8" d="M1421.18,1156.01c0.5,2.67-1.34,5.25-4.12,5.76s-5.44-1.24-5.94-3.91c-0.5-2.67,1.34-5.25,4.12-5.76
				S1420.68,1153.34,1421.18,1156.01z"/>
			<path class="st8" d="M1382.76,1152.89c-2.46-0.87-4.97-1.42-7.49-1.67c-2.52-0.23-5.04-0.11-7.46,0.45
				c-1.21,0.26-2.39,0.66-3.54,1.14c-0.58,0.23-1.13,0.52-1.69,0.79c-0.28,0.14-0.54,0.31-0.82,0.46c-0.27,0.15-0.55,0.3-0.81,0.48
				c-2.13,1.34-4.08,2.99-5.96,4.78c1.28-2.23,3.02-4.25,5.13-5.89c1.05-0.82,2.2-1.55,3.43-2.13c1.22-0.59,2.52-1.05,3.86-1.35
				c2.67-0.6,5.46-0.62,8.09-0.09c1.32,0.25,2.6,0.65,3.82,1.15C1380.54,1151.51,1381.72,1152.11,1382.76,1152.89z"/>
			<path class="st8" d="M1403.18,1150.15c0.8-1.02,1.78-1.91,2.82-2.72c1.05-0.8,2.18-1.52,3.38-2.11c2.4-1.21,5.1-1.93,7.83-2.05
				c1.37-0.07,2.74,0.04,4.08,0.28c1.34,0.23,2.64,0.63,3.87,1.15c2.47,1.03,4.68,2.52,6.5,4.33c-2.29-1.24-4.6-2.31-7.01-3.05
				c-0.3-0.1-0.6-0.17-0.91-0.25c-0.3-0.07-0.6-0.17-0.91-0.23c-0.61-0.12-1.22-0.25-1.84-0.32c-1.23-0.16-2.48-0.24-3.72-0.17
				c-2.48,0.1-4.95,0.65-7.31,1.53C1407.6,1147.47,1405.32,1148.67,1403.18,1150.15z"/>
			<path class="st8" d="M1328.63,1161.16c0,0,34.79-19.18,51.4-43.48c0,0,1.16,11.94-2.4,16.67c1.41,0.66,25.47-12.44,28.84-31.88
				c3.37-19.44-30.38-7.61-30.38-7.61s-20.15-0.48-20.97,0.05s-13.82,10.55-14.38,11.27c-0.57,0.71-15.67,28.42-15.67,28.42
				l-3.46,10.02l-3.56,17.52L1328.63,1161.16z"/>
			<path class="st38" d="M1388.6,1189.26c0,0,5.67-2.84,11.74-0.07c0,0,5.56-4.45,10.79-1.61c0,0-1.05,8.96-11.07,9.7
				S1388.6,1189.26,1388.6,1189.26z"/>
			<path class="st7" d="M1382.97,1186.86c1.24,0.72,2.52,1.37,3.85,1.91c1.31,0.56,2.66,1.05,4.04,1.42c2.75,0.75,5.6,1.15,8.43,1
				c2.84-0.13,5.63-0.85,8.23-2.01c2.59-1.19,4.97-2.83,7.16-4.7c-0.95,1.08-1.99,2.09-3.12,3.01c-1.13,0.92-2.38,1.7-3.67,2.42
				c-1.31,0.68-2.7,1.23-4.14,1.63c-1.44,0.38-2.93,0.61-4.42,0.71c-2.99,0.13-5.97-0.33-8.75-1.29
				C1387.83,1190.01,1385.2,1188.66,1382.97,1186.86z"/>
			<path class="st7" d="M1398.02,1156.83c1.72,2.02,3.25,4.18,4.67,6.4c1.42,2.22,2.71,4.53,3.81,6.96
				c0.52,1.23,1.01,2.48,1.29,3.86c0.06,0.35,0.1,0.71,0.11,1.09c0,0.19-0.02,0.4-0.04,0.6c-0.06,0.22-0.08,0.44-0.21,0.67
				c-0.07,0.12-0.14,0.23-0.21,0.34l-0.19,0.21c-0.13,0.13-0.25,0.27-0.38,0.4c-0.27,0.24-0.53,0.48-0.82,0.69
				c-1.11,0.87-2.31,1.54-3.54,2.15c-1.24,0.59-2.49,1.12-3.8,1.52c2.28-1.44,4.59-2.87,6.48-4.6c0.24-0.21,0.44-0.45,0.66-0.67
				l0.29-0.35l0.14-0.17c0.01-0.03,0.02-0.06,0.03-0.09c0.13-0.27,0.06-0.93-0.08-1.48c-0.28-1.17-0.75-2.36-1.28-3.53
				c-1.02-2.35-2.23-4.66-3.41-6.98C1400.36,1161.52,1399.16,1159.21,1398.02,1156.83z"/>
			<path class="st8" d="M1354.5,1089.58c0,0-32.01-61.59-85.5-56.32s-65.23,48.62-62.8,70.1s17.02,45.38,3.24,75.36
				c-13.78,29.98-10.53,74.97,31.6,71.52c42.14-3.45,32.82-46.53,33.23-61.86c0.41-15.33,29.98-13.73,22.69-41.68
				c-7.29-27.95-26.74-56.72,0.4-60.77c27.15-4.05,43.36,8.51,43.36,8.51L1354.5,1089.58z"/>
		</g>
		<g>
			<path class="st39" d="M1463.37,1231.12v45.36c0,8.96,7.27,16.23,16.23,16.23h21.78c7.42,0,13.67-4.98,15.61-11.77
				c11.05-0.18,19.99-9.23,19.99-20.33c0-10.89-8.6-19.81-19.37-20.31v-9.18H1463.37z M1517.61,1273.96v-26.69
				c6.93,0.5,12.42,6.29,12.42,13.35S1524.54,1273.46,1517.61,1273.96z"/>
			<path class="st40" d="M1506.22,1231.12h11.39v45.36c0,8.96-7.27,16.23-16.23,16.23h-21.78c-5.33,0-10.06-2.57-13.02-6.54
				C1512.23,1287.51,1506.22,1231.12,1506.22,1231.12z"/>
			<path class="st41" d="M1463.37,1231.64c0,2.81,12.17,5.08,27.19,5.08s27.19-2.27,27.19-5.08c0-2.81-12.17-5.08-27.19-5.08
				S1463.37,1228.83,1463.37,1231.64z"/>
			<path class="st39" d="M1465.56,1231.64c0,2.16,11.19,3.91,24.99,3.91c13.8,0,24.99-1.75,24.99-3.91c0-2.16-11.19-3.91-24.99-3.91
				C1476.75,1227.73,1465.56,1229.48,1465.56,1231.64z"/>
			<ellipse class="st14" cx="1490.56" cy="1232.67" rx="24.12" ry="2.88"/>
			<path class="st40" d="M1532.08,1260.61c0,7.05-5.49,12.85-12.42,13.35v-0.31c5.93-1.37,10.36-6.7,10.36-13.04
				s-4.43-11.66-10.36-13.04v-0.31C1526.6,1247.76,1532.08,1253.56,1532.08,1260.61z"/>
			<path class="st42" d="M1469.36,1272.88L1469.36,1272.88c1.22,0,2.21-0.99,2.21-2.21v-28.62c0-1.22-0.99-2.21-2.21-2.21l0,0
				c-1.22,0-2.21,0.99-2.21,2.21v28.62C1467.14,1271.89,1468.13,1272.88,1469.36,1272.88z"/>
		</g>
		<path class="st3" d="M1466.89,1274.37c0.49,0.81,1.69,0.77,2.1-0.09c3.17-6.65,13.26-27.52,15.14-27.09
			c2.23,0.5-6.34,19.37-4.81,20.84c1.53,1.48,9.42-17.13,11.71-16.21s-5.47,17.65-4.64,18.38s9.98-14.5,11.66-14.77
			s-6.12,17.18-5.36,18.35c0.76,1.17,10.14-9.08,11.11-8.37c0.97,0.71,1.74,1.01-12.77,30.15l-6.2,11.23l-10.01,6.42l-11.64-8.32
			c0,0-7.62-41.23-6.38-42.43C1457.99,1261.31,1459.31,1261.83,1466.89,1274.37z"/>
		<path class="st26" d="M1351.42,1228.12c0,0-60.71,14.36-68.55,52.88c-7.83,38.52-41.78,242.85-28.07,309.44
			c0,0,37.21,57.45,125.34-3.26c0,0,34.6-30.03,59.41-33.29l-22.2-99.23l42.43-129.91c0,0,5.22-75.73-51.57-86.17
			C1408.22,1238.57,1378.19,1249.02,1351.42,1228.12z"/>
		<path class="st36" d="M1300.18,1268.92c9.43-8.88,24.85-5.96,30.99,5.45c15.13,28.08,58.27,107.75,62.04,110.44
			c4.57,3.26,64.63-88.3,64.63-88.3s21.54,0.82,31.34,8.66c0,0-32.64,176.26-91.4,162.56c-44.95-10.49-86.07-89.36-102.92-125.85
			c-7.65-16.56-9.69-35.28-5.12-52.94C1291.73,1281.17,1294.98,1273.81,1300.18,1268.92z"/>
	</g>
	<g>
		<g>
			<rect x="1347.88" y="1486.93" class="st43" width="25.11" height="484.91"/>
			<rect x="1584.83" y="1486.93" class="st43" width="25.11" height="484.91"/>
			<rect x="2301.53" y="1486.93" class="st43" width="25.11" height="484.91"/>
			<rect x="2538.48" y="1486.93" class="st43" width="25.11" height="484.91"/>
			<path class="st0" d="M2631.8,1492.65H1283.15c-1.38,0-2.51-1.12-2.51-2.51v-25.9c0-1.38,1.12-2.51,2.51-2.51H2631.8
				c1.38,0,2.51,1.12,2.51,2.51v25.9C2634.3,1491.53,2633.18,1492.65,2631.8,1492.65z"/>
		</g>
		<path class="st44" d="M2631.8,1492.65h-336.55c-1.38,0-2.51-1.12-2.51-2.51v-25.9c0-1.38,1.12-2.51,2.51-2.51h336.55
			c1.38,0,2.51,1.12,2.51,2.51v25.9C2634.3,1491.53,2633.18,1492.65,2631.8,1492.65z"/>
	</g>
	<rect x="314.34" y="1971.65" class="st6" width="2922.77" height="13.44"/>
	<g>
		<path class="st45" d="M742.96,1087.39L742.96,1087.39c0-12.72-9.45-23.22-21.71-24.89v-31.99c0-22.6-18.32-40.93-40.93-40.93
			H515.51c-22.61,0-40.93,18.33-40.93,40.93v32.14c-11.79,2.06-20.76,12.35-20.76,24.74l0,0c0,12.39,8.97,22.67,20.76,24.74v167.62
			c-11.79,2.07-20.76,12.35-20.76,24.74v0c0,12.39,8.97,22.67,20.76,24.74v3.7c0,22.6,18.33,40.93,40.93,40.93h32.57
			c5.88,0,10.65,4.77,10.65,10.65v11.68h78.37v-11.68c0-5.88,4.77-10.65,10.65-10.65h32.57c22.6,0,40.93-18.33,40.93-40.93v-3.55
			c12.26-1.67,21.71-12.17,21.71-24.88v0c0-12.72-9.45-23.22-21.71-24.88v-167.32C733.51,1110.61,742.96,1100.11,742.96,1087.39z"/>
		<polygon class="st22" points="474.58,1112.13 642.55,1114.26 474.58,1116.39 		"/>
		<polygon class="st22" points="721.24,1058.24 553.27,1060.38 721.24,1062.51 		"/>
		<polygon class="st22" points="474.58,1329.19 642.55,1331.32 474.58,1333.45 		"/>
		<polygon class="st22" points="721.24,1275.3 553.27,1277.43 721.24,1279.57 		"/>
		<path class="st46" d="M742.96,1087.39L742.96,1087.39c0-12.72-9.45-23.22-21.71-24.89v-31.99c0-22.6-18.32-40.93-40.93-40.93
			h-29.19c-13.31,115.7-49.11,290.71-145.43,383.07c3.14,0.77,6.42,1.19,9.8,1.19h32.57c5.88,0,10.65,4.77,10.65,10.65v11.68h78.37
			v-11.68c0-5.88,4.77-10.65,10.65-10.65h32.57c22.6,0,40.93-18.33,40.93-40.93v-3.55c12.26-1.67,21.71-12.17,21.71-24.89l0,0
			c0-12.72-9.45-23.22-21.71-24.88v-167.32C733.51,1110.61,742.96,1100.11,742.96,1087.39z"/>
		<ellipse class="st22" cx="597.92" cy="1188.45" rx="123.34" ry="7.48"/>
		<path class="st47" d="M721.25,1279.6v-91.11c-0.41,4.11-55.46,7.43-123.33,7.43c-68.12,0-123.34-3.35-123.34-7.48v91.3
			c-11.79,2.07-20.76,12.35-20.76,24.74c0,12.39,8.97,22.67,20.76,24.74v3.7c0,22.6,18.33,40.93,40.93,40.93h32.57
			c5.88,0,10.65,4.77,10.65,10.65v11.68h78.37v-11.68c0-5.88,4.77-10.65,10.65-10.65h32.57c22.6,0,40.93-18.33,40.93-40.93v-3.55
			c12.26-1.67,21.71-12.17,21.71-24.89C742.96,1291.77,733.51,1281.26,721.25,1279.6z"/>
		<path class="st48" d="M658.84,1441.28h-120.9c-2.45,0-4.44-1.99-4.44-4.44v-43.39c0-2.45,1.99-4.44,4.44-4.44h120.9
			c2.45,0,4.44,1.99,4.44,4.44v43.39C663.28,1439.3,661.29,1441.28,658.84,1441.28z"/>
		<path class="st22" d="M714.09,1971.75h-231.4c-13.07,0-23.66-10.59-23.66-23.66v-528.25c0-13.07,10.59-23.66,23.66-23.66h231.4
			c13.07,0,23.66,10.59,23.66,23.66v528.25C737.75,1961.15,727.15,1971.75,714.09,1971.75z"/>
		<path class="st48" d="M682.34,1663.78H514.43v-165.34c0-7.87,6.38-14.25,14.25-14.25h139.4c7.87,0,14.25,6.38,14.25,14.25V1663.78
			z"/>
		<path class="st23" d="M668.24,1663.78h-139.7v-154.89c0-6.55,5.31-11.86,11.86-11.86h115.98c6.55,0,11.86,5.31,11.86,11.86
			V1663.78z"/>
		<path class="st48" d="M700.72,1675.63H498.43c-0.56,0-1.01-0.45-1.01-1.01v-9.84c0-0.56,0.45-1.01,1.01-1.01h202.28
			c0.56,0,1.01,0.45,1.01,1.01v9.84C701.72,1675.18,701.27,1675.63,700.72,1675.63z"/>
		<path class="st49" d="M691.63,1959.75H505.15c-17.84,0-32.35-14.51-32.35-32.35v-468.74c0-17.84,14.51-32.35,32.35-32.35h186.47
			c17.84,0,32.35,14.51,32.35,32.35v468.74C723.98,1945.24,709.46,1959.75,691.63,1959.75z M505.15,1428.44
			c-16.66,0-30.22,13.56-30.22,30.22v468.74c0,16.66,13.56,30.22,30.22,30.22h186.47c16.66,0,30.22-13.56,30.22-30.22v-468.74
			c0-16.66-13.56-30.22-30.22-30.22H505.15z"/>
		<path class="st48" d="M501.06,1934.46c0,3.19-2.58,5.77-5.77,5.77c-3.19,0-5.77-2.58-5.77-5.77c0-3.18,2.58-5.77,5.77-5.77
			C498.48,1928.69,501.06,1931.27,501.06,1934.46z"/>
		<path class="st48" d="M501.06,1453.81c0,3.18-2.58,5.77-5.77,5.77c-3.19,0-5.77-2.58-5.77-5.77c0-3.19,2.58-5.77,5.77-5.77
			C498.48,1448.04,501.06,1450.63,501.06,1453.81z"/>
		<path class="st48" d="M707.49,1934.46c0,3.19-2.58,5.77-5.77,5.77c-3.19,0-5.77-2.58-5.77-5.77c0-3.18,2.58-5.77,5.77-5.77
			C704.91,1928.69,707.49,1931.27,707.49,1934.46z"/>
		<path class="st48" d="M707.49,1453.81c0,3.18-2.58,5.77-5.77,5.77c-3.19,0-5.77-2.58-5.77-5.77c0-3.19,2.58-5.77,5.77-5.77
			C704.91,1448.04,707.49,1450.63,707.49,1453.81z"/>
		<path class="st49" d="M667.69,1888.79h-138.6c-8.86,0-16.07-7.21-16.07-16.07v-49.71c0-8.86,7.21-16.07,16.07-16.07h138.6
			c8.86,0,16.07,7.21,16.07,16.07v49.71C683.77,1881.58,676.56,1888.79,667.69,1888.79z M529.09,1809.78
			c-7.3,0-13.23,5.94-13.23,13.23v49.71c0,7.29,5.94,13.23,13.23,13.23h138.6c7.3,0,13.23-5.94,13.23-13.23v-49.71
			c0-7.29-5.94-13.23-13.23-13.23H529.09z"/>
		<g>
			<path class="st0" d="M567.64,1575.81h-1.23l3.21-29.04c0.21-1.88-1.27-3.53-3.16-3.53h-2.64h-6.18h-2.64
				c-1.89,0-3.37,1.64-3.16,3.53l3.21,29.04h-1.23c-1.31,0-2.37,1.06-2.37,2.37v7.94c0,1.31,1.06,2.37,2.37,2.37h13.81
				c1.31,0,2.37-1.06,2.37-2.37v-7.94C570.01,1576.88,568.95,1575.81,567.64,1575.81z"/>
			<path class="st50" d="M571.85,1584.81h-22.03c-0.23,0-0.41-0.18-0.41-0.41v-4.03c0-0.23,0.18-0.41,0.41-0.41h22.03
				c0.23,0,0.41,0.18,0.41,0.41v4.03C572.26,1584.62,572.08,1584.81,571.85,1584.81z"/>
		</g>
		<path class="st0" d="M642.75,1575.81h-1.23l3.21-29.04c0.21-1.88-1.27-3.53-3.16-3.53h-2.64h-6.18h-2.64
			c-1.89,0-3.37,1.64-3.16,3.53l3.21,29.04h-1.23c-1.31,0-2.37,1.06-2.37,2.37v7.94c0,1.31,1.06,2.37,2.37,2.37h13.81
			c1.31,0,2.37-1.06,2.37-2.37v-7.94C645.12,1576.88,644.06,1575.81,642.75,1575.81z"/>
		<path class="st45" d="M646.96,1584.81h-22.03c-0.23,0-0.41-0.18-0.41-0.41v-4.03c0-0.23,0.18-0.41,0.41-0.41h22.03
			c0.23,0,0.41,0.18,0.41,0.41v4.03C647.37,1584.62,647.19,1584.81,646.96,1584.81z"/>
		<polygon class="st12" points="641.81,1604.45 629.88,1604.45 612.69,1604.45 622.7,1663.91 629.88,1663.91 641.81,1663.91 
			648.99,1663.91 659,1604.45 		"/>
		<path class="st45" d="M662.15,1610.06h-52.61c-0.3,0-0.54-0.24-0.54-0.54v-5.27c0-0.3,0.24-0.54,0.54-0.54h52.61
			c0.3,0,0.54,0.24,0.54,0.54v5.27C662.69,1609.82,662.45,1610.06,662.15,1610.06z"/>
		<path class="st46" d="M620.84,1619.4c-1.91,0-3.76,0.29-5.49,0.84l6.03,35.81c9.87-0.29,17.79-8.37,17.79-18.31
			C639.17,1627.61,630.96,1619.4,620.84,1619.4z"/>
	</g>
	<g>
		<path class="st6" d="M1747.3,1334.33h-172.52l-48.92,119.31h-83.11c-2.32,0-4.21,1.88-4.21,4.2l0,0c0,2.32,1.88,4.21,4.21,4.21
			h247.21L1747.3,1334.33z"/>
		<path class="st45" d="M1661.75,1402.41c-1.02,5.08-5.45,8.49-9.91,7.59c-4.45-0.89-7.24-5.73-6.22-10.82
			c1.02-5.08,5.45-8.49,9.91-7.59C1659.98,1392.48,1662.77,1397.32,1661.75,1402.41z"/>
	</g>
	<g>
		<rect x="2652.92" y="894.59" class="st0" width="26.67" height="107.9"/>
		
			<rect x="2849.19" y="936.67" transform="matrix(-1.836970e-16 1 -1 -1.836970e-16 3850.4114 -1869.1628)" class="st51" width="21.2" height="107.9"/>
		
			<rect x="2863.54" y="915.41" transform="matrix(-1.836970e-16 1 -1 -1.836970e-16 3843.4988 -1904.7854)" class="st0" width="21.2" height="107.9"/>
		
			<rect x="2841.21" y="894.67" transform="matrix(-1.836970e-16 1 -1 -1.836970e-16 3800.4324 -1903.1907)" class="st25" width="21.2" height="107.9"/>
		<rect x="2683.16" y="851.13" class="st51" width="27.27" height="149.77"/>
		<rect x="2624.63" y="867.64" class="st25" width="25.12" height="133.26"/>
		
			<rect x="2738.41" y="867.64" transform="matrix(0.8986 -0.4387 0.4387 0.8986 -131.0119 1301.5133)" class="st25" width="25.12" height="133.26"/>
		<path class="st51" d="M3000.63,855.7c-6.62,0-11.98,5.36-11.98,11.98v13.34c0,2.45-1.98,4.43-4.43,4.43h-5.48v-24.31
			c0-8.87-7.19-16.06-16.06-16.06s-16.06,7.19-16.06,16.06v51.16h-3.09c-3.91,0-7.07-3.17-7.07-7.07v-10.71
			c0-6.62-5.36-11.98-11.98-11.98l0,0c-6.62,0-11.98,5.36-11.98,11.98v17.78c0,13.23,10.72,23.96,23.96,23.96h10.16v30.56h32.12
			v-57.41h9.91c13.23,0,23.96-10.73,23.96-23.96v-17.78C3012.61,861.06,3007.25,855.7,3000.63,855.7z"/>
		<path class="st52" d="M2962.44,966.82V845.1c-8.75,0.13-15.81,7.26-15.81,16.05v51.16h-3.09c-3.91,0-7.07-3.17-7.07-7.07v-10.71
			c0-6.62-5.36-11.98-11.98-11.98l0,0c-6.62,0-11.98,5.36-11.98,11.98v17.78c0,13.23,10.72,23.96,23.96,23.96h10.16v30.56H2962.44z"
			/>
		<path class="st6" d="M2972.51,1000.14h-20.15c-9.36,0-16.95-7.59-16.95-16.95v-37.1h54.06v37.1
			C2989.46,992.55,2981.87,1000.14,2972.51,1000.14z"/>
		<rect x="2604.69" y="1000.14" class="st6" width="431.45" height="12.19"/>
	</g>
	<g>
		<ellipse class="st25" cx="673.6" cy="616.14" rx="121.65" ry="121.91"/>
		<ellipse class="st0" cx="673.6" cy="616.14" rx="104.17" ry="104.38"/>
		<g>
			
				<rect x="579.29" y="596.37" transform="matrix(6.123234e-17 -1 1 6.123234e-17 -34.7944 1196.3389)" class="st25" width="2.96" height="38.4"/>
			
				<rect x="765.18" y="596.37" transform="matrix(6.123234e-17 -1 1 6.123234e-17 151.0928 1382.2261)" class="st25" width="2.96" height="38.4"/>
			<rect x="671.96" y="504.67" class="st25" width="2.95" height="38.48"/>
			<rect x="671.96" y="690.2" class="st25" width="2.95" height="38.48"/>
			<path class="st25" d="M676.78,616.14c0,1.76-1.42,3.19-3.18,3.19c-1.76,0-3.18-1.43-3.18-3.19c0-1.76,1.42-3.19,3.18-3.19
				C675.35,612.96,676.78,614.38,676.78,616.14z"/>
			<g>
				<path class="st25" d="M673.6,617.57c-0.36,0-0.73-0.14-1-0.42l-57.12-57.24c-0.56-0.56-0.56-1.46,0-2.01
					c0.55-0.56,1.46-0.56,2.01,0l57.12,57.24c0.56,0.56,0.56,1.46,0,2.01C674.32,617.43,673.96,617.57,673.6,617.57z"/>
			</g>
			<g>
				<path class="st25" d="M691.96,673.99c-0.24-0.12-0.43-0.33-0.52-0.6l-18.46-55.88c-0.18-0.54,0.11-1.13,0.66-1.31
					c0.54-0.18,1.13,0.11,1.31,0.66l18.46,55.88c0.18,0.54-0.11,1.13-0.66,1.31C692.48,674.13,692.2,674.11,691.96,673.99z"/>
			</g>
		</g>
	</g>
	<g>
		<rect x="834.45" y="883.8" class="st25" width="29.03" height="117.69"/>
		
			<rect x="1048.06" y="929.82" transform="matrix(-1.836970e-16 1 -1 -1.836970e-16 2048.1716 -71.0784)" class="st39" width="23.12" height="117.45"/>
		
			<rect x="1063.69" y="906.62" transform="matrix(-1.836970e-16 1 -1 -1.836970e-16 2040.5994 -109.9016)" class="st25" width="23.12" height="117.45"/>
		
			<rect x="1039.38" y="884.01" transform="matrix(-1.836970e-16 1 -1 -1.836970e-16 1993.6753 -108.2124)" class="st0" width="23.12" height="117.45"/>
		<rect x="867.37" y="836.39" class="st0" width="29.69" height="163.36"/>
		<rect x="803.66" y="854.4" class="st39" width="27.34" height="145.36"/>
		<polygon class="st39" points="985.28,986.37 960.71,998.4 897.07,867.77 921.65,855.75 		"/>
		<rect x="781.96" y="998.93" class="st48" width="359.91" height="13.3"/>
		<rect x="803.66" y="865.84" class="st0" width="27.34" height="9.43"/>
		<rect x="840.83" y="893.76" class="st53" width="16.28" height="44.9"/>
		<rect x="867.37" y="854.4" class="st53" width="29.69" height="7.09"/>
		<rect x="867.37" y="976.91" class="st53" width="29.69" height="9.3"/>
	</g>
	<g>
		<rect x="1100.09" y="607.83" class="st0" width="203.81" height="203.81"/>
		<rect x="1120.97" y="628.71" class="st23" width="162.04" height="162.04"/>
	</g>
	<g>
		<rect x="2739.76" y="528.22" class="st0" width="161.69" height="161.69"/>
		<rect x="2756.32" y="544.79" class="st23" width="128.56" height="128.56"/>
	</g>
	<g>
		<rect x="897.18" y="493.3" class="st0" width="139.72" height="139.72"/>
		<rect x="911.5" y="507.62" class="st23" width="111.09" height="111.09"/>
	</g>
	<g>
		<rect x="2572.35" y="635.66" class="st0" width="109.08" height="109.07"/>
		<rect x="2583.53" y="646.84" class="st23" width="86.72" height="86.72"/>
	</g>
</g>
</svg>
